<svg width="20" height="20" viewBox="0 0 20 20" fill="none" xmlns="http://www.w3.org/2000/svg">
<path d="M0.526183 4.53294C0.691892 4.364 0.888723 4.22997 1.10541 4.13852C1.3221 4.04707 1.55438 4 1.78897 4C2.02356 4 2.25584 4.04707 2.47253 4.13852C2.68922 4.22997 2.88605 4.364 3.05176 4.53294L10.0016 11.6037L16.9514 4.53294C17.2863 4.1922 17.7405 4.00077 18.2141 4.00077C18.6878 4.00077 19.142 4.1922 19.4769 4.53294C19.8118 4.87368 20 5.33582 20 5.8177C20 6.29957 19.8118 6.76172 19.4769 7.10246L11.2554 15.4671C11.0897 15.636 10.8929 15.77 10.6762 15.8615C10.4595 15.9529 10.2272 16 9.9926 16C9.75802 16 9.52573 15.9529 9.30904 15.8615C9.09236 15.77 8.89553 15.636 8.72982 15.4671L0.508271 7.10246C-0.17238 6.40996 -0.17238 5.24366 0.526183 4.53294Z" fill="#90273A"/>
</svg>
