<svg width="42" height="40" viewBox="0 0 42 40" fill="none" xmlns="http://www.w3.org/2000/svg">
<path d="M36.332 13.8368C38.0218 15.8248 38.4985 18.866 37.4718 21.2441C36.4451 23.6222 33.9151 25.3373 32.5113 28.0093C31.0758 30.6925 30.7562 34.3541 29.0004 35.9379C27.2763 37.5106 24.0843 37.0168 21.4747 35.8534C18.8549 34.7114 16.8175 32.8998 14.6001 31.1341C12.351 29.3795 9.92193 27.6708 8.1886 25.1097C6.44506 22.5701 5.40747 19.1567 5.9495 15.9692C6.50173 12.7603 8.63357 9.77734 11.6015 9.19132C14.5377 8.61652 18.2885 10.4284 21.3107 10.9466C24.3227 11.4863 26.5734 10.6903 29.1716 10.7699C31.7382 10.8608 34.6525 11.8273 36.332 13.8368Z" fill="#B64F62"/>
<path d="M31.9511 6.94644C34.2841 7.99631 35.9873 10.4927 36.0806 13.0357C36.1739 15.5787 34.6574 18.1684 34.5408 21.1313C34.4008 24.1176 35.6606 27.5005 34.7741 29.6469C33.9109 31.77 30.8779 32.6798 28.0783 32.7498C25.2786 32.8432 22.7123 32.0966 20.006 31.4667C17.2763 30.8601 14.4067 30.3701 11.7937 28.8303C9.18067 27.3139 6.82431 24.7242 5.96108 21.6679C5.09786 18.5883 5.72778 15.0421 8.10748 13.269C10.4638 11.5192 14.5467 11.5425 17.4396 10.726C20.3326 9.93273 21.989 8.27628 24.3221 7.24974C26.6318 6.24653 29.6181 5.87325 31.9511 6.94644Z" fill="#90273A"/>
</svg>
