<svg width="22" height="22" viewBox="0 0 22 22" fill="none" xmlns="http://www.w3.org/2000/svg">
<g filter="url(#filter0_d)">
<path d="M4.77778 11.7778H9.44444C9.65072 11.7778 9.84855 11.6958 9.99442 11.55C10.1403 11.4041 10.2222 11.2063 10.2222 11V4.77778C10.2222 4.5715 10.1403 4.37367 9.99442 4.22781C9.84855 4.08194 9.65072 4 9.44444 4H4.77778C4.5715 4 4.37367 4.08194 4.22781 4.22781C4.08194 4.37367 4 4.5715 4 4.77778V11C4 11.2063 4.08194 11.4041 4.22781 11.55C4.37367 11.6958 4.5715 11.7778 4.77778 11.7778ZM4 17.2222C4 17.4285 4.08194 17.6263 4.22781 17.7722C4.37367 17.9181 4.5715 18 4.77778 18H9.44444C9.65072 18 9.84855 17.9181 9.99442 17.7722C10.1403 17.6263 10.2222 17.4285 10.2222 17.2222V14.1111C10.2222 13.9048 10.1403 13.707 9.99442 13.5611C9.84855 13.4153 9.65072 13.3333 9.44444 13.3333H4.77778C4.5715 13.3333 4.37367 13.4153 4.22781 13.5611C4.08194 13.707 4 13.9048 4 14.1111V17.2222ZM11.7778 17.2222C11.7778 17.4285 11.8597 17.6263 12.0056 17.7722C12.1514 17.9181 12.3493 18 12.5556 18H17.2222C17.4285 18 17.6263 17.9181 17.7722 17.7722C17.9181 17.6263 18 17.4285 18 17.2222V11.7778C18 11.5715 17.9181 11.3737 17.7722 11.2278C17.6263 11.0819 17.4285 11 17.2222 11H12.5556C12.3493 11 12.1514 11.0819 12.0056 11.2278C11.8597 11.3737 11.7778 11.5715 11.7778 11.7778V17.2222ZM12.5556 9.44444H17.2222C17.4285 9.44444 17.6263 9.3625 17.7722 9.21664C17.9181 9.07078 18 8.87295 18 8.66667V4.77778C18 4.5715 17.9181 4.37367 17.7722 4.22781C17.6263 4.08194 17.4285 4 17.2222 4H12.5556C12.3493 4 12.1514 4.08194 12.0056 4.22781C11.8597 4.37367 11.7778 4.5715 11.7778 4.77778V8.66667C11.7778 8.87295 11.8597 9.07078 12.0056 9.21664C12.1514 9.3625 12.3493 9.44444 12.5556 9.44444Z" fill="white"/>
</g>
<defs>
<filter id="filter0_d" x="0" y="0" width="22" height="22" filterUnits="userSpaceOnUse" color-interpolation-filters="sRGB">
<feFlood flood-opacity="0" result="BackgroundImageFix"/>
<feColorMatrix in="SourceAlpha" type="matrix" values="0 0 0 0 0 0 0 0 0 0 0 0 0 0 0 0 0 0 127 0"/>
<feOffset/>
<feGaussianBlur stdDeviation="2"/>
<feColorMatrix type="matrix" values="0 0 0 0 0 0 0 0 0 0 0 0 0 0 0 0 0 0 0.25 0"/>
<feBlend mode="normal" in2="BackgroundImageFix" result="effect1_dropShadow"/>
<feBlend mode="normal" in="SourceGraphic" in2="effect1_dropShadow" result="shape"/>
</filter>
</defs>
</svg>
