<svg width="769" height="738" viewBox="0 0 769 738" fill="none" xmlns="http://www.w3.org/2000/svg">
<path fill-rule="evenodd" clip-rule="evenodd" d="M64.9978 214.6C24.1978 137.5 35.1978 98.9 128.798 61.3C222.898 23.7 635.198 29.6 604.898 61.3C574.598 93 611.298 83.3 600.298 92.5C568.598 112.7 532.398 111.3 496.498 112.2C413.898 113.1 331.698 112.2 248.998 112.7C186.598 113.2 136.998 133.8 108.498 192.6C97.5978 206.8 84.7978 217.8 64.9978 214.6Z" fill="#C2C3C9"/>
<path fill-rule="evenodd" clip-rule="evenodd" d="M585.198 88.3002C585.198 81.0002 585.198 74.1002 585.198 66.7002C592.498 66.7002 599.398 66.7002 606.798 66.7002C624.198 97.5002 659.597 81.4002 682.597 95.6002C711.097 114 703.698 126.8 673.898 132.3C654.198 149.3 667.498 178.2 651.398 196.6C651.398 210.8 651.398 224.6 651.398 238.8C592.198 240.2 580.697 187.8 553.597 152.5C544.297 121.9 561.298 103 585.198 88.3002Z" fill="#AEADB3"/>
<path fill-rule="evenodd" clip-rule="evenodd" d="M64.9982 214.6C72.7982 206.8 80.1982 199 87.9982 191.2C177.498 89.6999 305.098 109 402.498 136.6C498.898 163.7 592.598 228 684.898 280.8C735.398 330.8 741.798 388.7 714.698 452.5C713.798 469.9 708.298 485.1 690.798 493.8C669.198 516.3 673.398 548.9 659.098 574.6C626.498 609 573.198 626.5 542.498 608.6C458.498 559.9 434.098 607.2 410.698 670.6C246.298 755.1 256.398 741.8 123.698 603.1C3.49816 476.3 -2.00184 357.4 64.9982 214.6Z" fill="#EDEEF0"/>
<path fill-rule="evenodd" clip-rule="evenodd" d="M670.098 299.5C643.498 304.6 645.798 199 592.498 283C571.798 315.6 550.298 264.6 531.398 247.2C414.398 138.9 215.598 113.6 87.998 191.2C103.598 112.2 153.698 80.6003 231.698 82.8003C319.898 85.1003 408.498 84.6003 497.098 85.1003C525.598 106.7 540.698 146.6 584.298 147.1C627.498 161.8 637.098 210.5 671.098 234.3C678.398 241.2 686.298 248.1 693.598 255C705.898 280.7 685.298 288.5 670.098 299.5Z" fill="#D8D9DD"/>
<path fill-rule="evenodd" clip-rule="evenodd" d="M411.198 670.5C442.898 611.7 368.498 635.6 356.998 597.5C430.898 598 490.598 569 534.198 515.3C573.198 551.6 529.098 567.6 535.998 596.6C578.698 603 614.098 583.7 647.998 559.9C688.398 557.1 682.898 578.3 669.998 602.6C583.798 625.5 497.498 648 411.198 670.5Z" fill="#D8D9DD"/>
<path fill-rule="evenodd" clip-rule="evenodd" d="M670.098 299.5C677.898 284.8 685.298 269.7 693.098 255C751.898 315.1 817.998 374.4 714.698 452.4C700.898 401.5 717.398 341.3 670.098 299.5Z" fill="#C2C3C9"/>
<path fill-rule="evenodd" clip-rule="evenodd" d="M670.098 602.6C668.698 585.2 665.998 568.6 648.098 559.9C648.098 528.7 659.998 504.8 691.298 493.8C667.798 526.8 749.998 580.5 670.098 602.6Z" fill="#C2C3C9"/>
<path fill-rule="evenodd" clip-rule="evenodd" d="M650.897 202.2C638.997 173.7 610.497 128.3 670.197 125.5C700.497 114.5 719.297 189.8 719.297 189.8C719.297 189.8 660.497 232.1 650.897 202.2Z" fill="#C2C3C9"/>
<path fill-rule="evenodd" clip-rule="evenodd" d="M583.398 147.1C576.998 158.6 565.998 180.2 564.098 179.2C522.798 161.8 493.398 134.7 496.198 85.0998C532.498 84.5998 568.298 83.6998 604.598 83.2998C597.598 104.4 590.698 126 583.398 147.1Z" fill="#C2C3C9"/>
<path fill-rule="evenodd" clip-rule="evenodd" d="M152.199 717.8C145.299 715.5 138.399 713.7 131.499 711.4C45.5991 688.9 18.9991 608.6 6.59908 543.4C-5.80092 479.1 3.79908 405.2 7.49908 335.4C21.6991 290.9 53.8991 270.2 99.2991 267C109.899 262.4 120.399 261 130.499 268.8C150.199 274.8 168.099 262.8 186.999 263.3C216.799 272 242.599 298.2 241.599 321.6C237.899 385.4 272.799 385.4 316.899 380.4C415.199 451.6 404.099 449.7 361.899 568.2C323.499 676.5 255.599 715 152.199 717.8Z" fill="#F7F7F8"/>
<path fill-rule="evenodd" clip-rule="evenodd" d="M63.6 667.3C50.7 666.4 37.9 665 25.5 663.6C26.9 650.7 27.8 637.9 29.2 625C86.6 599.7 64.1 533.6 93.9 496C131.1 448.3 152.7 463.9 157.7 518C184.8 556.6 238 537.3 267.9 569.4C292.7 571.7 317.9 574.5 343.2 576.7C335.4 682 240.4 693.9 173.4 735.7C116 746.3 86.1 712.8 63.6 667.3Z" fill="#F7F7F8"/>
<path d="M358.899 110.8C357.099 110.8 355.199 111.3 353.399 112.2L294.199 145.3C284.999 150.4 284.999 163.2 294.199 168.3L352.499 200C356.599 202.3 361.199 202.3 364.899 200L423.199 168.8C432.399 163.7 432.399 150.9 423.199 145.8L363.999 112.7C362.499 111.3 360.699 110.8 358.899 110.8ZM262.399 197.6V198.1C262.399 202.7 259.599 207.3 255.499 209.6L160.499 262.4C157.299 264.2 154.999 267.9 154.999 271.6V356C154.999 360.6 152.199 365.2 148.099 367.5L143.499 370.3C134.299 375.4 134.299 388.7 143.499 393.3L202.299 424.5C206.399 426.8 210.999 426.8 214.699 424.5L272.499 392.8C281.699 387.7 281.699 374.9 272.499 369.8L213.699 336.7C210.499 334.9 206.399 334.9 203.099 336.7L195.799 340.8C187.099 345.4 176.499 339.4 176.499 329.3V285.2C176.499 280.6 179.299 276 183.399 273.7L242.599 240.6C251.299 235.5 262.299 242 262.299 252.1V264C262.299 267.7 264.099 271.3 267.799 273.2L328.399 306.7C337.099 311.8 348.099 305.3 348.099 295.2V229.5C348.099 224.9 345.299 220.3 341.199 218L281.999 185.4C272.999 181.1 262.399 187.5 262.399 197.6ZM435.999 186.6L376.799 218.7C372.699 221 369.899 225.6 369.899 230.2V296.3C369.899 306.4 380.499 312.8 389.599 307.8L450.199 274.3C453.399 272.5 455.699 268.8 455.699 265.1V252.7C455.699 242.6 466.299 236.2 475.399 241.2L534.599 274.3C538.699 276.6 541.499 281.2 541.499 285.8V329.9C541.499 340 530.499 346.4 521.799 341.4L514.499 337.3C511.299 335.5 507.199 335.5 503.899 337.3L444.699 370.4C435.499 375.5 435.499 388.3 444.699 393.4L502.999 425.1C507.099 427.4 511.699 427.4 515.399 425.1L573.199 393.4C582.399 388.3 582.399 375.5 573.199 370.4L569.099 368.1C564.999 365.8 562.199 361.2 562.199 356.6V271.7C562.199 268 560.399 264.4 556.699 262.5L461.699 209.7C457.599 207.4 454.799 202.8 454.799 198.2C455.299 188 444.699 181.5 435.999 186.6ZM285.899 410.7L226.699 443.3C222.599 445.6 219.799 450.2 219.799 454.8V543.4L227.599 539.3C231.699 537 236.299 537 240.499 539.3L353.899 602.2C357.099 604 361.199 604 364.499 602.2L477.899 539.3C481.999 537 486.599 537 490.799 539.3L498.599 543.4V454.8C498.599 450.2 495.799 445.6 491.699 443.3L432.499 410.7C423.799 406.1 413.199 412.1 413.199 422.2V481.9C413.199 490.6 417.799 498.4 425.099 502.6L441.599 511.8C450.799 516.9 450.799 529.7 441.599 534.8L365.399 577C361.299 579.3 356.699 579.3 352.499 577L276.699 534.8C267.499 529.7 267.499 516.9 276.699 511.8L300.099 498.9C303.299 497.1 305.599 493.4 305.599 489.7V422.2C305.099 412 294.599 405.6 285.899 410.7ZM585.699 410.7L526.499 443.3C522.399 445.6 519.599 450.2 519.599 454.8V520.9C519.599 531 530.199 537.4 539.299 532.4L599.899 498.9C603.099 497.1 605.399 493.4 605.399 489.7V422.2C605.399 412 594.399 405.6 585.699 410.7ZM131.999 411.6C123.299 407 112.699 413.4 112.699 423.1V489.7C112.699 493.4 114.499 497 118.199 498.9L178.799 532.4C187.499 537.5 198.499 531 198.499 520.9V454.8C198.499 449.7 195.699 445.6 191.599 443.3L131.999 411.6Z" fill="#90273A"/>
</svg>
