<svg width="770" height="703" viewBox="0 0 770 703" fill="none" xmlns="http://www.w3.org/2000/svg">
<path fill-rule="evenodd" clip-rule="evenodd" d="M65.3003 179.573C24.3003 102.373 35.4004 63.7735 129.1 26.0735C223.3 -11.6265 636.1 -5.62655 605.7 26.0735C575.4 57.7735 612.1 48.1735 601.1 57.3735C569.4 77.5735 533.1 76.1735 497.2 77.1735C414.5 78.0735 332.2 77.1735 249.5 77.6735C187 78.1735 137.4 98.7734 108.9 157.673C97.9003 171.773 85.0003 182.873 65.3003 179.573Z" fill="#9A3345"/>
<path fill-rule="evenodd" clip-rule="evenodd" d="M586.001 53.1732C586.001 45.7732 586.001 38.9732 586.001 31.5732C593.401 31.5732 600.201 31.5732 607.601 31.5732C625.101 62.3732 660.501 46.2732 683.401 60.5732C711.901 78.9732 704.501 91.8732 674.701 97.3732C654.901 114.373 668.301 143.373 652.201 161.673C652.201 175.873 652.201 189.673 652.201 203.973C592.901 205.373 581.401 152.973 554.301 117.573C544.601 86.7732 562.101 67.9732 586.001 53.1732Z" fill="#90273A"/>
<path fill-rule="evenodd" clip-rule="evenodd" d="M65.3007 179.573C73.1007 171.773 80.5007 163.973 88.3007 156.173C177.901 54.573 305.701 73.873 403.101 101.473C499.601 128.573 593.401 192.973 685.801 245.773C736.401 295.873 742.801 353.773 715.701 417.673C714.801 435.173 709.301 450.273 691.801 459.073C670.201 481.573 674.301 514.273 660.101 539.973C627.501 574.473 574.201 591.873 543.401 573.973C459.301 525.273 434.901 572.573 411.501 635.973C247.001 720.573 257.101 707.173 124.201 568.373C3.70071 441.573 -1.89928 322.573 65.3007 179.573Z" fill="#A8495B"/>
<path fill-rule="evenodd" clip-rule="evenodd" d="M671.001 264.674C644.301 269.774 646.601 163.974 593.301 248.174C572.601 280.774 551.001 229.774 532.201 212.274C415.001 103.774 216.001 78.4738 88.2012 156.174C103.901 77.0738 154.001 45.3738 232.101 47.6738C320.301 49.9738 409.101 49.4738 497.801 49.9738C526.301 71.5738 541.501 111.574 585.101 111.974C628.301 126.674 638.001 175.374 672.001 199.274C679.401 206.174 687.201 213.074 694.501 219.974C706.901 245.774 686.201 253.574 671.001 264.674Z" fill="#9F3C4E"/>
<path fill-rule="evenodd" clip-rule="evenodd" d="M411.801 635.973C443.501 577.173 369.101 601.073 357.601 562.873C431.601 563.373 491.301 534.373 535.001 480.573C574.101 516.873 529.901 532.973 536.801 561.973C579.501 568.373 614.901 549.073 648.901 525.173C689.301 522.373 683.801 543.573 671.001 567.873C584.601 590.473 498.201 613.473 411.801 635.973Z" fill="#A8495B"/>
<path fill-rule="evenodd" clip-rule="evenodd" d="M671 264.673C678.8 249.973 686.2 234.773 694 220.073C752.8 280.273 819 339.573 715.6 417.673C701.8 366.673 717.9 306.473 671 264.673Z" fill="#9A3345"/>
<path fill-rule="evenodd" clip-rule="evenodd" d="M671 567.973C669.6 550.473 666.9 533.973 648.9 525.273C648.9 493.973 660.9 470.073 692.1 459.073C668.7 492.173 751 545.973 671 567.973Z" fill="#9A3345"/>
<path fill-rule="evenodd" clip-rule="evenodd" d="M651.7 167.173C639.7 138.673 611.3 93.1731 671 90.3731C701.3 79.3731 720.2 154.673 720.2 154.673C720.2 154.673 661.4 197.073 651.7 167.173Z" fill="#9A3345"/>
<path fill-rule="evenodd" clip-rule="evenodd" d="M584.201 112.073C577.801 123.573 566.701 145.173 564.901 144.273C523.501 126.773 494.101 99.6734 496.901 50.0734C533.201 49.5734 569.101 48.6734 605.401 48.2734C598.401 69.2734 591.501 90.8734 584.201 112.073Z" fill="#9A3345"/>
<path fill-rule="evenodd" clip-rule="evenodd" d="M152.6 683.373C145.7 681.073 138.8 679.273 131.9 676.973C45.9999 654.473 19.2999 573.973 6.89987 508.773C-5.50013 444.473 4.09987 370.473 7.79987 300.573C21.9999 255.973 54.1999 235.273 99.6999 232.073C110.3 227.473 120.8 226.073 131 233.873C150.8 239.873 168.7 227.473 187.5 228.373C217.4 237.073 243.1 263.273 242.2 286.773C238.5 350.673 273.5 350.673 317.6 345.573C416 416.773 404.9 414.973 362.6 533.573C324 641.973 256 680.573 152.6 683.373Z" fill="#AE4E61"/>
<path fill-rule="evenodd" clip-rule="evenodd" d="M63.9008 632.774C51.0008 631.874 38.2008 630.474 25.8008 629.074C27.2008 616.174 28.1008 603.374 29.5008 590.474C87.0008 565.174 64.4008 498.974 94.3008 461.274C131.501 413.474 153.101 429.074 158.201 483.374C185.301 521.974 238.601 502.674 268.501 534.374C293.301 536.674 318.601 539.474 343.901 541.774C336.101 647.074 240.901 658.974 173.801 700.774C116.301 711.874 86.4008 678.274 63.9008 632.774Z" fill="#B75B6D"/>
<path d="M374.673 89.4492C372.873 89.4492 371.073 89.9492 369.173 90.8492L310.373 123.649C301.273 128.649 301.273 141.449 310.373 146.449L368.273 177.849C372.373 180.149 376.973 180.149 380.573 177.849L438.473 146.849C447.573 141.849 447.573 129.049 438.473 124.049L379.673 91.3492C378.273 89.9492 376.473 89.4492 374.673 89.4492ZM278.973 175.649V176.149C278.973 180.749 276.273 185.249 272.173 187.549L177.873 239.949C174.673 241.749 172.373 245.449 172.373 249.049V332.849C172.373 337.449 169.673 341.949 165.573 344.249L160.973 346.949C151.873 351.949 151.873 365.149 160.973 369.749L219.273 400.749C223.373 403.049 227.973 403.049 231.573 400.749L288.973 369.349C298.073 364.349 298.073 351.549 288.973 346.549L230.673 313.649C227.473 311.849 223.373 311.849 220.173 313.649L212.873 317.749C204.173 322.349 193.773 316.349 193.773 306.349V262.649C193.773 258.049 196.473 253.549 200.573 251.249L259.373 218.449C268.073 213.449 278.973 219.849 278.973 229.849V241.649C278.973 245.249 280.773 248.949 284.473 250.749L344.573 284.049C353.273 289.049 364.173 282.649 364.173 272.649V207.449C364.173 202.849 361.473 198.349 357.373 196.049L298.573 163.649C289.373 159.249 278.973 165.549 278.973 175.649ZM451.173 164.649L392.373 196.549C388.273 198.849 385.573 203.349 385.573 207.949V273.549C385.573 283.549 396.073 289.949 405.173 284.949L465.273 251.649C468.473 249.849 470.773 246.149 470.773 242.549V230.249C470.773 220.249 481.273 213.849 490.373 218.849L549.173 251.649C553.273 253.949 555.973 258.449 555.973 263.049V306.749C555.973 316.749 545.073 323.149 536.373 318.149L529.073 314.049C525.873 312.249 521.773 312.249 518.573 314.049L459.773 346.849C450.673 351.849 450.673 364.649 459.773 369.649L517.673 401.049C521.773 403.349 526.373 403.349 529.973 401.049L587.373 369.649C596.473 364.649 596.473 351.849 587.373 346.849L583.273 344.549C579.173 342.249 576.473 337.749 576.473 333.149V248.849C576.473 245.249 574.673 241.549 570.973 239.749L476.673 187.449C472.573 185.149 469.873 180.649 469.873 176.049C470.373 166.049 459.873 159.649 451.173 164.649ZM302.173 387.049L243.373 419.449C239.273 421.749 236.573 426.249 236.573 430.849V518.749L244.273 514.649C248.373 512.349 252.973 512.349 257.073 514.649L369.673 577.049C372.873 578.849 376.973 578.849 380.173 577.049L492.673 514.649C496.773 512.349 501.373 512.349 505.473 514.649L513.173 518.749V430.849C513.173 426.249 510.473 421.749 506.373 419.449L447.573 387.049C438.873 382.449 428.473 388.449 428.473 398.449V457.649C428.473 466.349 433.073 474.049 440.273 478.149L456.673 487.249C465.773 492.249 465.773 505.049 456.673 510.049L381.073 551.949C376.973 554.249 372.373 554.249 368.273 551.949L293.073 510.049C283.973 505.049 283.973 492.249 293.073 487.249L316.273 474.449C319.473 472.649 321.773 468.949 321.773 465.349V398.349C321.273 388.449 310.873 382.049 302.173 387.049ZM599.773 387.049L540.973 419.449C536.873 421.749 534.173 426.249 534.173 430.849V496.449C534.173 506.449 544.673 512.849 553.773 507.849L613.873 474.549C617.073 472.749 619.373 469.049 619.373 465.449V398.449C619.373 388.449 608.373 382.049 599.773 387.049ZM149.573 387.949C140.873 383.349 130.473 389.749 130.473 399.349V465.449C130.473 469.049 132.273 472.749 135.973 474.549L196.073 507.849C204.773 512.849 215.673 506.449 215.673 496.449V430.849C215.673 425.849 212.973 421.749 208.873 419.449L149.573 387.949Z" fill="white"/>
</svg>
