<svg width="16" height="18" viewBox="0 0 16 18" fill="none" xmlns="http://www.w3.org/2000/svg">
<path d="M14.9789 7.32034H9.493V1.14865C9.493 0.514286 9.03589 0 8.47198 0H7.52796C6.96408 0 6.50693 0.514249 6.50693 1.14865V7.32034H1.02102C0.457143 7.32034 0 7.83459 0 8.46899V9.53101C0 10.1654 0.45711 10.6797 1.02102 10.6797H6.50697V16.8513C6.50697 17.4857 6.96408 18 7.52799 18H8.47201C9.03589 18 9.49303 17.4858 9.49303 16.8513V10.6796H14.979C15.5429 10.6796 16 10.1654 16 9.53097V8.46895C16 7.83459 15.5428 7.32034 14.9789 7.32034Z" fill="#90273A"/>
</svg>
