<svg width="19" height="20" viewBox="0 0 19 20" fill="none" xmlns="http://www.w3.org/2000/svg">
<path d="M9.46746 0.336319C6.58124 0.336319 4.22723 2.69033 4.22723 5.57656C4.22723 8.46278 6.58124 10.8168 9.46746 10.8168C12.3537 10.8168 14.7077 8.46278 14.7077 5.57656C14.7077 2.69033 12.3537 0.336319 9.46746 0.336319ZM9.46746 10.8168C4.65709 10.8168 0.733734 14.7401 0.733734 19.5505H2.48048C2.48048 15.6818 5.59869 12.5635 9.46746 12.5635C13.3362 12.5635 16.4544 15.6818 16.4544 19.5505H18.2012C18.2012 14.7401 14.2778 10.8168 9.46746 10.8168ZM9.46746 2.08306C11.4053 2.08306 12.961 3.63876 12.961 5.57656C12.961 7.51435 11.4053 9.07005 9.46746 9.07005C7.52967 9.07005 5.97397 7.51435 5.97397 5.57656C5.97397 3.63876 7.52967 2.08306 9.46746 2.08306Z" fill="white"/>
</svg>
