<svg width="21" height="24" viewBox="0 0 21 24" fill="none" xmlns="http://www.w3.org/2000/svg">
<path d="M10.5226 23.9442C11.8629 23.9442 12.9595 22.8645 12.9595 21.5448H8.08574C8.08574 22.8645 9.18233 23.9442 10.5226 23.9442ZM17.8332 16.7461V10.7476C17.8332 7.0646 15.8472 3.9814 12.3503 3.16561V2.34982C12.3503 1.35408 11.5339 0.550293 10.5226 0.550293C9.51131 0.550293 8.69496 1.35408 8.69496 2.34982V3.16561C5.21024 3.9814 3.21201 7.0526 3.21201 10.7476V16.7461L0.775146 19.1455V20.3451H20.2701V19.1455L17.8332 16.7461ZM15.3963 17.9458H5.64888V10.7476C5.64888 7.77241 7.48871 5.34904 10.5226 5.34904C13.5565 5.34904 15.3963 7.77241 15.3963 10.7476V17.9458Z" fill="#90273A"/>
</svg>
