<svg width="18" height="13" viewBox="0 0 18 13" fill="none" xmlns="http://www.w3.org/2000/svg">
<path d="M1.47644 1.36463C1.61075 1.19708 1.76959 1.06468 1.94388 0.975037C2.11817 0.88539 2.30447 0.840246 2.49213 0.84219C2.67979 0.844135 2.86513 0.893129 3.03752 0.986369C3.20991 1.07961 3.36598 1.21526 3.49679 1.38557L8.98307 8.51352L14.6159 1.50078C14.8873 1.16283 15.2527 0.975181 15.6316 0.979106C16.0105 0.983032 16.3718 1.17821 16.6362 1.52171C16.9006 1.86521 17.0463 2.32888 17.0413 2.81074C17.0363 3.29259 16.8811 3.75315 16.6096 4.09109L9.94605 12.3871C9.81174 12.5547 9.6529 12.687 9.47861 12.7767C9.30432 12.8663 9.11802 12.9115 8.93036 12.9095C8.7427 12.9076 8.55737 12.8586 8.38497 12.7654C8.21258 12.6721 8.05651 12.5365 7.9257 12.3662L1.43549 3.93386C0.898169 3.23577 0.910253 2.06952 1.47644 1.36463Z" fill="white"/>
</svg>
