<svg width="14" height="16" viewBox="0 0 14 16" fill="none" xmlns="http://www.w3.org/2000/svg">
<path d="M11.6667 5.33333H13.2222C13.4285 5.33333 13.6263 5.41361 13.7722 5.55649C13.9181 5.69938 14 5.89317 14 6.09524V15.2381C14 15.4402 13.9181 15.634 13.7722 15.7768C13.6263 15.9197 13.4285 16 13.2222 16H0.777778C0.571498 16 0.373667 15.9197 0.227806 15.7768C0.0819442 15.634 0 15.4402 0 15.2381V6.09524C0 5.89317 0.0819442 5.69938 0.227806 5.55649C0.373667 5.41361 0.571498 5.33333 0.777778 5.33333H2.33333V4.57143C2.33333 3.35901 2.825 2.19625 3.70017 1.33894C4.57534 0.481631 5.76232 0 7 0C8.23768 0 9.42466 0.481631 10.2998 1.33894C11.175 2.19625 11.6667 3.35901 11.6667 4.57143V5.33333ZM1.55556 6.85714V14.4762H12.4444V6.85714H1.55556ZM6.22222 9.90476H7.77778V11.4286H6.22222V9.90476ZM3.11111 9.90476H4.66667V11.4286H3.11111V9.90476ZM9.33333 9.90476H10.8889V11.4286H9.33333V9.90476ZM10.1111 5.33333V4.57143C10.1111 3.76315 9.78333 2.98798 9.19989 2.41644C8.61644 1.8449 7.82512 1.52381 7 1.52381C6.17488 1.52381 5.38356 1.8449 4.80011 2.41644C4.21667 2.98798 3.88889 3.76315 3.88889 4.57143V5.33333H10.1111Z" fill="#494949"/>
</svg>
