<svg width="24" height="22" viewBox="0 0 24 22" fill="none" xmlns="http://www.w3.org/2000/svg">
<path d="M22 0H2C0.895833 0 0 1.0558 0 2.35714V19.6429C0 20.9442 0.895833 22 2 22H22C23.1042 22 24 20.9442 24 19.6429V2.35714C24 1.0558 23.1042 0 22 0ZM22 19.6429H2V2.35714H22V19.6429ZM8.66667 11C10.1375 11 11.3333 9.59063 11.3333 7.85714C11.3333 6.12366 10.1375 4.71429 8.66667 4.71429C7.19583 4.71429 6 6.12366 6 7.85714C6 9.59063 7.19583 11 8.66667 11ZM4.93333 17.2857H12.4C12.9167 17.2857 13.3333 16.8634 13.3333 16.3429V15.4C13.3333 13.8384 12.0792 12.5714 10.5333 12.5714C10.0833 12.5714 9.75417 12.9643 8.66667 12.9643C7.54583 12.9643 7.275 12.5714 6.8 12.5714C5.25417 12.5714 4 13.8384 4 15.4V16.3429C4 16.8634 4.41667 17.2857 4.93333 17.2857ZM15 14.1429H19.6667C19.85 14.1429 20 13.9661 20 13.75V12.9643C20 12.7482 19.85 12.5714 19.6667 12.5714H15C14.8167 12.5714 14.6667 12.7482 14.6667 12.9643V13.75C14.6667 13.9661 14.8167 14.1429 15 14.1429ZM15 11H19.6667C19.85 11 20 10.8232 20 10.6071V9.82143C20 9.60536 19.85 9.42857 19.6667 9.42857H15C14.8167 9.42857 14.6667 9.60536 14.6667 9.82143V10.6071C14.6667 10.8232 14.8167 11 15 11ZM15 7.85714H19.6667C19.85 7.85714 20 7.68036 20 7.46429V6.67857C20 6.4625 19.85 6.28571 19.6667 6.28571H15C14.8167 6.28571 14.6667 6.4625 14.6667 6.67857V7.46429C14.6667 7.68036 14.8167 7.85714 15 7.85714Z" fill="#90273A"/>
</svg>
