<svg width="229" height="88" viewBox="0 0 229 88" fill="none" xmlns="http://www.w3.org/2000/svg">
<mask id="mask0" mask-type="alpha" maskUnits="userSpaceOnUse" x="0" y="0" width="229" height="88">
<path d="M0 15C0 6.71573 6.71573 0 15 0H229V88H0V15Z" fill="#C4C4C4"/>
</mask>
<g mask="url(#mask0)">
<g filter="url(#filter0_d)">
<path d="M31.7183 43.1961C87.2835 39.125 143.666 73.3219 200.048 77.9629C209.683 78.7112 219.335 78.5463 229 77.6721V9.11764C229 4.79876 226.615 0 219.134 0H12.4626C8.30841 0 0 0.645321 0 7.09852V49.1775C10.3922 46.0775 21.3093 43.9509 31.7183 43.1961Z" fill="#90273A"/>
</g>
<g filter="url(#filter1_d)">
<path d="M27.3804 40.2014C85.8573 36.4126 145.194 68.2387 204.531 72.558C214.671 73.2544 224.829 73.1009 235 72.2873V0L224.617 1.37091e-05H7.11566C2.74377 1.23443e-05 -5.99998 0.600596 -5.99998 6.60641V45.7682C4.93683 42.8831 16.4259 40.904 27.3804 40.2014Z" fill="white"/>
</g>
</g>
<defs>
<filter id="filter0_d" x="-8" y="-8" width="245" height="94.4379" filterUnits="userSpaceOnUse" color-interpolation-filters="sRGB">
<feFlood flood-opacity="0" result="BackgroundImageFix"/>
<feColorMatrix in="SourceAlpha" type="matrix" values="0 0 0 0 0 0 0 0 0 0 0 0 0 0 0 0 0 0 127 0"/>
<feOffset/>
<feGaussianBlur stdDeviation="4"/>
<feColorMatrix type="matrix" values="0 0 0 0 0.25 0 0 0 0 0.25 0 0 0 0 0.25 0 0 0 0.25 0"/>
<feBlend mode="normal" in2="BackgroundImageFix" result="effect1_dropShadow"/>
<feBlend mode="normal" in="SourceGraphic" in2="effect1_dropShadow" result="shape"/>
</filter>
<filter id="filter1_d" x="-14" y="-8" width="257" height="89" filterUnits="userSpaceOnUse" color-interpolation-filters="sRGB">
<feFlood flood-opacity="0" result="BackgroundImageFix"/>
<feColorMatrix in="SourceAlpha" type="matrix" values="0 0 0 0 0 0 0 0 0 0 0 0 0 0 0 0 0 0 127 0"/>
<feOffset/>
<feGaussianBlur stdDeviation="4"/>
<feColorMatrix type="matrix" values="0 0 0 0 0.25 0 0 0 0 0.25 0 0 0 0 0.25 0 0 0 0.25 0"/>
<feBlend mode="normal" in2="BackgroundImageFix" result="effect1_dropShadow"/>
<feBlend mode="normal" in="SourceGraphic" in2="effect1_dropShadow" result="shape"/>
</filter>
</defs>
</svg>
