<svg width="231" height="216" viewBox="0 0 231 216" fill="none" xmlns="http://www.w3.org/2000/svg">
<path d="M217.801 28.8008H189.001V50.4007C189.001 52.4808 188.591 54.5406 187.795 56.4623C186.999 58.3841 185.832 60.1303 184.362 61.6012C182.891 63.0721 181.145 64.2388 179.223 65.0348C177.301 65.8309 175.241 66.2406 173.161 66.2406C171.081 66.2406 169.021 65.8309 167.099 65.0348C165.178 64.2388 163.431 63.0721 161.961 61.6012C160.49 60.1303 159.323 58.3841 158.527 56.4623C157.731 54.5406 157.321 52.4808 157.321 50.4007V28.8008H73.4415V50.4007C73.4415 54.6017 71.7727 58.6306 68.8021 61.6012C65.8316 64.5717 61.8026 66.2406 57.6016 66.2406C53.4006 66.2406 49.3716 64.5717 46.4011 61.6012C43.4305 58.6306 41.7617 54.6017 41.7617 50.4007V28.8008H12.9618C11.2484 28.7813 9.54843 29.1056 7.96252 29.7545C6.37662 30.4034 4.93694 31.3638 3.72865 32.5788C2.52036 33.7938 1.56799 35.2387 0.927864 36.8282C0.287739 38.4177 -0.02714 40.1194 0.00185076 41.8327V202.968C-0.0267548 204.651 0.276487 206.323 0.894256 207.889C1.51202 209.455 2.43222 210.884 3.60228 212.094C4.77234 213.304 6.16934 214.272 7.7135 214.942C9.25765 215.612 10.9187 215.972 12.6018 216H217.801C219.484 215.972 221.145 215.612 222.689 214.942C224.233 214.272 225.63 213.304 226.8 212.094C227.97 210.884 228.891 209.455 229.508 207.889C230.126 206.323 230.429 204.651 230.401 202.968V41.8327C230.429 40.1496 230.126 38.4774 229.508 36.9115C228.891 35.3457 227.97 33.9168 226.8 32.7067C225.63 31.4965 224.233 30.5287 222.689 29.8585C221.145 29.1883 219.484 28.8289 217.801 28.8008V28.8008ZM57.6016 172.8H43.2017V158.4H57.6016V172.8ZM57.6016 136.8H43.2017V122.4H57.6016V136.8ZM57.6016 100.8H43.2017V86.4005H57.6016V100.8ZM100.801 172.8H86.4015V158.4H100.801V172.8ZM100.801 136.8H86.4015V122.4H100.801V136.8ZM100.801 100.8H86.4015V86.4005H100.801V100.8ZM144.001 172.8H129.601V158.4H144.001V172.8ZM144.001 136.8H129.601V122.4H144.001V136.8ZM144.001 100.8H129.601V86.4005H144.001V100.8ZM187.201 172.8H172.801V158.4H187.201V172.8ZM187.201 136.8H172.801V122.4H187.201V136.8ZM187.201 100.8H172.801V86.4005H187.201V100.8Z" fill="#90273A"/>
<path d="M57.6016 57.5998C59.5111 57.5998 61.3425 56.8412 62.6927 55.4909C64.043 54.1407 64.8015 52.3093 64.8015 50.3998V7.19997C64.8015 5.29042 64.043 3.45908 62.6927 2.10882C61.3425 0.758566 59.5111 0 57.6016 0C55.692 0 53.8607 0.758566 52.5104 2.10882C51.1602 3.45908 50.4016 5.29042 50.4016 7.19997V50.3998C50.4016 52.3093 51.1602 54.1407 52.5104 55.4909C53.8607 56.8412 55.692 57.5998 57.6016 57.5998Z" fill="#90273A"/>
<path d="M172.801 57.5998C174.711 57.5998 176.542 56.8412 177.892 55.4909C179.242 54.1407 180.001 52.3093 180.001 50.3998V7.19997C180.001 5.29042 179.242 3.45908 177.892 2.10882C176.542 0.758566 174.711 0 172.801 0C170.891 0 169.06 0.758566 167.71 2.10882C166.36 3.45908 165.601 5.29042 165.601 7.19997V50.3998C165.601 52.3093 166.36 54.1407 167.71 55.4909C169.06 56.8412 170.891 57.5998 172.801 57.5998Z" fill="#90273A"/>
</svg>
