<svg width="768" height="737" viewBox="0 0 768 737" fill="none" xmlns="http://www.w3.org/2000/svg">
<path fill-rule="evenodd" clip-rule="evenodd" d="M65.1 214.399C24.3 137.399 35.3 98.8994 128.8 61.2994C222.8 23.6994 634.4 29.6994 604.2 61.2994C573.9 92.8994 610.6 83.2994 599.6 92.4994C568 112.699 531.8 111.299 496 112.199C413.5 113.099 331.4 112.199 248.9 112.699C186.6 113.199 137.1 133.799 108.6 192.499C97.7 206.599 84.8 217.599 65.1 214.399Z" fill="#C2C3C9"/>
<path fill-rule="evenodd" clip-rule="evenodd" d="M584.5 88.3994C584.5 81.0994 584.5 74.1994 584.5 66.8994C591.8 66.8994 598.7 66.8994 606 66.8994C623.4 97.5994 658.7 81.5994 681.6 95.7994C710 114.099 702.7 126.999 672.9 132.499C653.2 149.499 666.5 178.299 650.4 196.699C650.4 210.899 650.4 224.699 650.4 238.899C591.3 240.299 579.8 187.999 552.8 152.699C543.7 121.799 560.7 102.999 584.5 88.3994Z" fill="#AEADB3"/>
<path fill-rule="evenodd" clip-rule="evenodd" d="M65.0993 214.399C72.8993 206.599 80.1993 198.799 87.9993 190.999C177.399 89.7991 304.899 108.999 401.999 136.499C498.299 163.499 591.799 227.699 683.899 280.399C734.299 330.399 740.699 388.099 713.699 451.799C712.799 469.199 707.299 484.299 689.899 493.099C668.399 515.599 672.499 548.099 658.299 573.799C625.799 608.199 572.599 625.599 541.899 607.699C457.999 559.099 433.699 606.299 410.299 669.599C246.199 753.899 256.299 740.699 123.799 602.199C3.6993 475.699 -1.80072 356.999 65.0993 214.399Z" fill="#EDEEF0"/>
<path fill-rule="evenodd" clip-rule="evenodd" d="M669.3 299.199C642.7 304.199 645 198.799 591.8 282.699C571.2 315.199 549.6 264.399 530.8 246.899C414 138.799 215.5 113.599 88.0996 191.099C103.7 112.299 153.7 80.5994 231.6 82.8994C319.6 85.1994 408.1 84.6994 496.6 85.1994C525 106.699 540.1 146.599 583.7 147.099C626.8 161.799 636.4 210.399 670.3 234.199C677.6 241.099 685.4 247.999 692.8 254.799C705 280.399 684.4 288.199 669.3 299.199Z" fill="#D8D9DD"/>
<path fill-rule="evenodd" clip-rule="evenodd" d="M410.799 669.6C442.399 610.9 368.199 634.8 356.699 596.7C430.499 597.2 490.099 568.3 533.599 514.6C572.599 550.8 528.599 566.9 535.399 595.7C577.999 602.1 613.299 582.9 647.199 559C687.499 556.2 681.999 577.3 669.199 601.6C583.099 624.7 496.899 647.2 410.799 669.6Z" fill="#D8D9DD"/>
<path fill-rule="evenodd" clip-rule="evenodd" d="M669.299 299.199C677.099 284.499 684.399 269.399 692.199 254.699C750.899 314.699 816.899 373.899 713.699 451.799C699.999 400.999 716.499 340.999 669.299 299.199Z" fill="#C2C3C9"/>
<path fill-rule="evenodd" clip-rule="evenodd" d="M669.299 601.799C667.899 584.399 665.199 567.899 647.299 559.199C647.299 527.999 659.199 504.199 690.399 493.199C666.999 526.099 749.099 579.799 669.299 601.799Z" fill="#C2C3C9"/>
<path fill-rule="evenodd" clip-rule="evenodd" d="M649.998 202.099C638.098 173.699 609.698 128.299 669.298 125.499C699.598 114.499 718.298 189.699 718.298 189.699C718.298 189.699 659.698 231.899 649.998 202.099Z" fill="#C2C3C9"/>
<path fill-rule="evenodd" clip-rule="evenodd" d="M582.699 147.099C576.299 158.599 565.299 180.099 563.399 179.199C522.099 161.799 492.799 134.699 495.599 85.1994C531.799 84.6994 567.599 83.7994 603.799 83.3994C596.899 104.399 589.999 125.999 582.699 147.099Z" fill="#C2C3C9"/>
<path fill-rule="evenodd" clip-rule="evenodd" d="M152.2 716.8C145.3 714.5 138.4 712.7 131.6 710.4C45.8999 688 19.2999 607.7 6.89987 542.6C-5.50013 478.4 4.09987 404.6 7.79987 334.9C21.9999 290.4 54.0999 269.8 99.4999 266.6C110 262 120.6 260.6 130.7 268.4C150.4 274.4 168.3 262.4 187.1 262.9C216.9 271.6 242.6 297.7 241.6 321.1C237.9 384.8 272.8 384.8 316.8 379.8C414.9 450.9 403.9 449 361.7 567.3C323.2 675.6 255.4 714.1 152.2 716.8Z" fill="#F7F7F8"/>
<path fill-rule="evenodd" clip-rule="evenodd" d="M63.8008 666.4C51.0008 665.5 38.1008 664.099 25.8008 662.699C27.2008 649.899 28.1008 636.999 29.5008 624.199C86.7008 598.999 64.2008 532.999 94.0008 495.399C131.101 447.699 152.701 463.299 157.701 517.399C184.701 555.899 237.901 536.699 267.701 568.699C292.501 570.999 317.701 573.699 342.901 575.999C335.101 680.999 240.201 692.899 173.301 734.599C116.001 745.299 86.2008 711.799 63.8008 666.4Z" fill="#F7F7F8"/>
<path d="M167.401 154.399L150.401 191.499L107.801 195.199L139.401 221.799L130.701 262.099L167.401 240.599L205.001 262.099L194.001 221.799L226.501 195.199L183.901 191.499L167.401 154.399ZM298.001 184.599V231.799H582.201V184.599H298.001ZM167.401 296.499L150.401 333.599L107.801 337.699L139.401 364.299L130.701 404.599L167.401 383.099L205.001 404.599L194.001 364.299L226.501 337.699L183.901 333.599L167.401 296.499ZM298.001 326.699V373.999H582.201V326.799H298.001V326.699ZM167.401 438.599L150.401 475.699L107.801 479.799L139.401 506.399L130.701 546.699L167.401 525.199L205.001 546.699L194.001 506.399L226.501 479.799L183.901 475.699L167.401 438.599ZM298.001 468.799V515.999H582.201V468.799H298.001Z" fill="#90273A"/>
</svg>
