<svg width="770" height="703" viewBox="0 0 770 703" fill="none" xmlns="http://www.w3.org/2000/svg">
<path fill-rule="evenodd" clip-rule="evenodd" d="M65.3003 179.573C24.3003 102.373 35.4004 63.7735 129.1 26.0735C223.3 -11.6265 636.1 -5.62655 605.7 26.0735C575.4 57.7735 612.1 48.1735 601.1 57.3735C569.4 77.5735 533.1 76.1735 497.2 77.1735C414.5 78.0735 332.2 77.1735 249.5 77.6735C187 78.1735 137.4 98.7734 108.9 157.673C97.9003 171.773 85.0003 182.873 65.3003 179.573Z" fill="#9A3345"/>
<path fill-rule="evenodd" clip-rule="evenodd" d="M586.001 53.1732C586.001 45.7732 586.001 38.9732 586.001 31.5732C593.401 31.5732 600.201 31.5732 607.601 31.5732C625.101 62.3732 660.501 46.2732 683.401 60.5732C711.901 78.9732 704.501 91.8732 674.701 97.3732C654.901 114.373 668.301 143.373 652.201 161.673C652.201 175.873 652.201 189.673 652.201 203.973C592.901 205.373 581.401 152.973 554.301 117.573C544.601 86.7732 562.101 67.9732 586.001 53.1732Z" fill="#90273A"/>
<path fill-rule="evenodd" clip-rule="evenodd" d="M65.3007 179.573C73.1007 171.773 80.5007 163.973 88.3007 156.173C177.901 54.573 305.701 73.873 403.101 101.473C499.601 128.573 593.401 192.973 685.801 245.773C736.401 295.873 742.801 353.773 715.701 417.673C714.801 435.173 709.301 450.273 691.801 459.073C670.201 481.573 674.301 514.273 660.101 539.973C627.501 574.473 574.201 591.873 543.401 573.973C459.301 525.273 434.901 572.573 411.501 635.973C247.001 720.573 257.101 707.173 124.201 568.373C3.70071 441.573 -1.89928 322.573 65.3007 179.573Z" fill="#A8495B"/>
<path fill-rule="evenodd" clip-rule="evenodd" d="M671.001 264.674C644.301 269.774 646.601 163.974 593.301 248.174C572.601 280.774 551.001 229.774 532.201 212.274C415.001 103.774 216.001 78.4738 88.2012 156.174C103.901 77.0738 154.001 45.3738 232.101 47.6738C320.301 49.9738 409.101 49.4738 497.801 49.9738C526.301 71.5738 541.501 111.574 585.101 111.974C628.301 126.674 638.001 175.374 672.001 199.274C679.401 206.174 687.201 213.074 694.501 219.974C706.901 245.774 686.201 253.574 671.001 264.674Z" fill="#9F3C4E"/>
<path fill-rule="evenodd" clip-rule="evenodd" d="M411.802 635.973C443.502 577.173 369.102 601.073 357.602 562.873C431.602 563.373 491.302 534.373 535.002 480.573C574.102 516.873 529.902 532.973 536.802 561.973C579.502 568.373 614.902 549.073 648.902 525.173C689.302 522.373 683.802 543.573 671.002 567.873C584.602 590.473 498.202 613.473 411.802 635.973Z" fill="#A8495B"/>
<path fill-rule="evenodd" clip-rule="evenodd" d="M671 264.673C678.8 249.973 686.2 234.773 694 220.073C752.8 280.273 819 339.573 715.6 417.673C701.8 366.673 717.9 306.473 671 264.673Z" fill="#9A3345"/>
<path fill-rule="evenodd" clip-rule="evenodd" d="M671 567.973C669.6 550.473 666.9 533.973 648.9 525.273C648.9 493.973 660.9 470.073 692.1 459.073C668.7 492.173 751 545.973 671 567.973Z" fill="#9A3345"/>
<path fill-rule="evenodd" clip-rule="evenodd" d="M651.7 167.173C639.7 138.673 611.3 93.1731 671 90.3731C701.3 79.3731 720.2 154.673 720.2 154.673C720.2 154.673 661.4 197.073 651.7 167.173Z" fill="#9A3345"/>
<path fill-rule="evenodd" clip-rule="evenodd" d="M584.201 112.073C577.801 123.573 566.701 145.173 564.901 144.273C523.501 126.773 494.101 99.6734 496.901 50.0734C533.201 49.5734 569.101 48.6734 605.401 48.2734C598.401 69.2734 591.501 90.8734 584.201 112.073Z" fill="#9A3345"/>
<path fill-rule="evenodd" clip-rule="evenodd" d="M152.6 683.373C145.7 681.073 138.8 679.273 131.9 676.973C45.9999 654.473 19.2999 573.973 6.89987 508.773C-5.50013 444.473 4.09987 370.473 7.79987 300.573C21.9999 255.973 54.1999 235.273 99.6999 232.073C110.3 227.473 120.8 226.073 131 233.873C150.8 239.873 168.7 227.473 187.5 228.373C217.4 237.073 243.1 263.273 242.2 286.773C238.5 350.673 273.5 350.673 317.6 345.573C416 416.773 404.9 414.973 362.6 533.573C324 641.973 256 680.573 152.6 683.373Z" fill="#AE4E61"/>
<path fill-rule="evenodd" clip-rule="evenodd" d="M63.9008 632.774C51.0008 631.874 38.2008 630.474 25.8008 629.074C27.2008 616.174 28.1008 603.374 29.5008 590.474C87.0008 565.174 64.4008 498.974 94.3008 461.274C131.501 413.474 153.101 429.074 158.201 483.374C185.301 521.974 238.601 502.674 268.501 534.374C293.301 536.674 318.601 539.474 343.901 541.774C336.101 647.074 240.901 658.974 173.801 700.774C116.301 711.874 86.4008 678.274 63.9008 632.774Z" fill="#B75B6D"/>
<path d="M120.1 118.399V313.399H315.1V118.399H120.1ZM137.9 135.799H297.3V249.999L264 218.499L259.4 213.899L227.9 229.899L192.3 186.999L186.4 180.099L179.5 185.999L137.9 222.099V135.799ZM262.2 153.599C252.6 153.599 244.4 161.399 244.4 171.399C244.4 180.999 252.2 189.199 262.2 189.199C271.8 189.199 280 181.399 280 171.399C279.5 161.399 271.8 153.599 262.2 153.599ZM357.2 171.399C352.2 172.299 349 176.399 349.4 181.399C350.3 186.399 354.4 189.599 359.4 189.199H554.4C557.6 189.199 560.8 187.399 562.2 184.599C563.6 181.899 563.6 178.199 562.2 175.499C560.4 172.799 557.6 170.899 554.4 170.899H359.4C358.9 170.899 358.9 170.899 358.5 170.899C358 170.899 358 170.899 357.6 170.899C357.7 171.399 357.2 171.399 357.2 171.399ZM184.5 205.199L218.8 246.799L223.4 252.299L229.3 249.099L256.3 235.899L297.4 274.699V295.299H137.9V244.999L184.5 205.199ZM357.2 233.599C352.2 234.099 349 238.599 349.4 243.599C350.3 248.599 354.4 251.799 359.4 251.399H518.8C522 251.399 524.7 249.599 526.6 246.799C528 244.099 528 240.399 526.6 237.699C524.8 234.999 522 233.099 518.8 233.099H359.5C359 233.099 359 233.099 358.6 233.099C358.1 233.099 358.1 233.099 357.7 233.099C357.7 233.599 357.2 233.599 357.2 233.599ZM120.1 366.499V561.499H315.1V366.499H120.1ZM137.9 383.799H297.3V543.199H137.9V383.799ZM233 410.799C231.6 410.799 230.7 410.799 229.8 411.299C225.2 411.799 221.1 413.599 217.9 415.399C214.7 417.199 214.2 417.699 212.4 419.099C209.2 417.299 206 415.899 201 414.999C194.6 414.099 185.9 414.999 179.5 420.899C171.3 428.699 171.3 439.599 172.6 446.499C173.5 450.199 174 450.599 174.9 452.899C173.1 454.699 172.6 454.699 170.3 457.499C166.2 463.399 162.1 472.999 165.7 483.099C167.5 488.099 171.2 492.199 175.3 494.499C183.1 499.099 189.9 499.099 195.4 498.599C198.1 503.199 201.8 508.599 209.1 512.799C212.3 514.599 216.9 515.999 221.4 515.999C226.9 515.499 231.9 513.299 235.1 510.099C238.3 506.899 240.6 503.199 242 500.099C243.8 496.399 243.8 495.499 244.3 492.799C246.6 492.299 247.5 492.299 251.2 490.999C258.1 488.699 267.2 483.199 269.9 472.699C272.2 463.099 267.2 454.899 262.6 449.899C259.4 446.699 257.1 445.299 254.8 443.999C255.3 441.699 255.7 440.799 255.3 436.699C254.8 429.399 253 419.299 243.4 413.899C240.3 411.699 236.6 410.799 233 410.799ZM357.2 428.099C352.2 428.999 349 433.099 349.4 438.099C350.3 443.099 354.4 446.299 359.4 445.899H554.4C557.6 445.899 560.8 444.099 562.2 441.299C563.6 438.499 563.6 434.899 562.2 432.199C560.4 429.499 557.6 427.599 554.4 427.599H359.4C358.9 427.599 358.9 427.599 358.5 427.599C358 427.599 358 427.599 357.6 427.599C357.7 428.099 357.2 428.099 357.2 428.099ZM233.4 428.599C233.9 428.599 234.3 429.099 234.8 429.099C236.2 429.999 237.5 433.199 238 437.799C238 442.399 237.5 446.499 237.5 446.499L235.7 453.399L241.6 456.599C241.6 456.599 241.6 456.599 242.1 457.099C243.5 457.999 247.6 460.299 250.3 462.999C253 465.699 254 467.599 253.5 469.399C253 471.699 250.3 473.999 246.2 475.299C242.1 476.699 238 477.099 238 477.099L231.1 477.599L229.7 483.999C229.7 483.999 228.8 488.599 226.5 492.699C225.6 494.999 224.2 496.799 223.3 498.199C222.4 499.099 221.9 499.099 221.5 499.099C220.6 499.099 220.1 499.099 218.8 498.199C214.7 495.899 208.8 486.299 208.8 486.299L206.1 480.399L199.2 481.299C199.2 481.299 188.2 481.799 184.6 479.899C183.7 479.399 183.2 478.999 182.8 478.099C181.9 475.399 182.8 472.199 185.1 468.499C187.4 464.799 190.6 462.599 190.6 462.599L196.1 457.999L192.4 451.599C192.4 451.599 190.6 448.399 190.1 444.299C189.2 440.199 189.2 436.999 191.9 434.699C193.7 432.899 195.1 432.899 197.8 433.299C200.5 433.799 204.2 435.599 206 436.499C207.4 437.399 207.8 437.399 207.8 437.399L213.7 441.999L218.7 436.999C218.7 436.999 221.9 434.299 226 431.999C227.8 431.099 229.7 430.199 231 429.699C232.5 428.599 233 428.599 233.4 428.599ZM225.2 442.299C220.2 443.699 217 458.299 217 458.299C217 458.299 209.2 440.499 203.3 445.499C197.4 450.499 215.2 460.099 215.2 460.099C215.2 460.099 196.5 462.399 198.8 468.799C201.1 475.199 216.6 461.899 216.6 461.899C216.6 461.899 212.5 481.999 219.8 480.599C227.1 479.199 218.9 461.399 218.9 461.399C218.9 461.399 236.7 471.399 237.6 464.099C238.5 456.799 219.3 459.099 219.3 459.099C219.3 459.099 233.9 445.399 227.5 441.699C226.6 442.299 225.6 442.299 225.2 442.299ZM357.2 490.299C352.2 491.199 349 495.299 349.4 500.299C350.3 505.299 354.4 508.499 359.4 508.099H518.8C522 508.099 524.7 506.299 526.6 503.499C528 500.799 528 497.099 526.6 494.399C524.8 491.699 522 489.799 518.8 489.799H359.5C359 489.799 359 489.799 358.6 489.799C358.1 489.799 358.1 489.799 357.7 489.799C357.7 490.299 357.2 490.299 357.2 490.299Z" fill="white"/>
</svg>
