<svg width="768" height="702" viewBox="0 0 768 702" fill="none" xmlns="http://www.w3.org/2000/svg">
<path fill-rule="evenodd" clip-rule="evenodd" d="M65.1996 179.6C24.3996 102.6 35.3996 64.0996 128.9 26.4996C222.9 -11.1004 634.4 -5.10044 604.2 26.4996C574 58.0996 610.6 48.4996 599.6 57.6996C568 77.8996 531.8 76.4996 496.1 77.3996C413.6 78.2996 331.6 77.3996 249.1 77.8996C186.8 78.3996 137.3 98.9996 108.9 157.6C97.7996 171.9 84.8996 182.9 65.1996 179.6Z" fill="#C2C3C9"/>
<path fill-rule="evenodd" clip-rule="evenodd" d="M584.5 53.5996C584.5 46.2996 584.5 39.3996 584.5 32.0996C591.8 32.0996 598.7 32.0996 606 32.0996C623.4 62.7996 658.7 46.7996 681.6 60.9996C710 79.2996 702.7 92.1996 672.9 97.6996C653.2 114.7 666.5 143.5 650.4 161.9C650.4 176.1 650.4 189.9 650.4 204.1C591.3 205.5 579.8 153.2 552.8 117.9C543.7 86.5996 560.7 68.2996 584.5 53.5996Z" fill="#AEADB3"/>
<path fill-rule="evenodd" clip-rule="evenodd" d="M65.1997 179.599C72.9997 171.799 80.2997 163.999 88.0997 156.199C177.5 54.8994 304.9 74.1994 402.1 101.699C498.3 128.699 591.8 192.899 684 245.599C734.4 295.599 740.8 353.299 713.8 416.999C712.9 434.399 707.4 449.499 690 458.199C668.5 480.699 672.6 513.199 658.4 538.899C625.9 573.299 572.7 590.699 542 572.799C458.1 524.199 433.8 571.399 410.5 634.699C246.4 718.999 256.5 705.699 124 567.299C3.7997 440.899 -1.70031 322.199 65.1997 179.599Z" fill="#EDEEF0"/>
<path fill-rule="evenodd" clip-rule="evenodd" d="M669.299 264.4C642.699 269.4 644.999 164 591.799 247.9C571.199 280.4 549.599 229.6 530.799 212.2C413.999 103.6 215.599 78.7996 88.1992 156.3C103.799 77.4996 153.699 45.7996 231.699 48.0996C319.699 50.3996 408.199 49.8996 496.599 50.3996C524.999 71.8996 540.099 111.8 583.699 112.3C626.799 127 636.399 175.5 670.299 199.4C677.599 206.3 685.399 213.1 692.799 220C705.099 245.2 684.399 253.4 669.299 264.4Z" fill="#D8D9DD"/>
<path fill-rule="evenodd" clip-rule="evenodd" d="M410.799 634.799C442.399 576.099 368.199 599.999 356.699 561.899C430.499 562.399 490.099 533.499 533.599 479.899C572.599 516.099 528.599 532.099 535.399 560.999C577.999 567.399 613.299 548.199 647.199 524.299C687.499 521.599 681.999 542.599 669.199 566.899C583.099 589.399 496.999 611.799 410.799 634.799Z" fill="#D8D9DD"/>
<path fill-rule="evenodd" clip-rule="evenodd" d="M669.299 264.399C677.099 249.699 684.399 234.599 692.199 219.899C750.899 279.899 816.899 339.099 713.699 416.999C699.999 365.699 716.499 305.699 669.299 264.399Z" fill="#C2C3C9"/>
<path fill-rule="evenodd" clip-rule="evenodd" d="M669.299 566.9C667.899 549.5 665.199 533 647.299 524.3C647.299 493.1 659.199 469.3 690.399 458.3C666.999 491.3 749.099 544.5 669.299 566.9Z" fill="#C2C3C9"/>
<path fill-rule="evenodd" clip-rule="evenodd" d="M650.099 167.299C638.199 138.899 609.799 93.4992 669.299 90.7992C699.499 79.7992 718.299 154.999 718.299 154.999C718.299 154.999 659.699 196.599 650.099 167.299Z" fill="#C2C3C9"/>
<path fill-rule="evenodd" clip-rule="evenodd" d="M583.1 112.3C576.7 123.8 565.7 145.3 563.9 144.4C522.7 127 493.3 99.8996 496.1 50.3996C532.3 49.8996 568.1 48.9996 604.3 48.5996C597.4 69.5996 590 90.6996 583.1 112.3Z" fill="#C2C3C9"/>
<path fill-rule="evenodd" clip-rule="evenodd" d="M152.299 682C145.399 679.7 138.599 677.9 131.699 675.6C45.9993 653.1 19.8993 572.9 6.99932 507.3C-5.40068 443.1 4.29932 369.3 7.89932 299.7C22.0993 255.2 54.1993 234.6 99.5993 231.4C110.099 226.8 120.699 225.4 130.799 233.2C150.499 239.2 168.399 227.2 187.199 227.7C216.999 236.4 242.699 262.5 241.699 285.9C237.599 349.6 272.399 349.6 316.399 345C414.499 416 403.499 414.2 361.299 532.5C323.299 640.7 255.399 678.8 152.299 682Z" fill="#F7F7F8"/>
<path fill-rule="evenodd" clip-rule="evenodd" d="M63.8984 631.6C51.0984 630.7 38.1984 629.3 25.8984 627.9C27.2984 615.1 28.1984 602.2 29.5984 589.4C86.8984 564.2 64.3984 498.2 94.1984 460.6C131.298 412.9 152.898 428.5 157.898 482.6C184.898 521.1 238.098 501.8 267.898 533.9C292.598 536.2 317.898 538.9 343.098 541.2C335.298 646.2 240.398 658.1 173.498 699.8C116.098 709.9 86.2984 676.9 63.8984 631.6Z" fill="#F7F7F8"/>
<path d="M119.299 142.5V338.2H314.999V142.5H119.299ZM137.199 160.4H297.199V275L263.699 243.4L259.099 238.8L227.499 254.8L191.799 211.7L185.799 204.8L178.899 210.8L137.199 247V160.4ZM261.899 178.3C252.299 178.3 243.999 186.1 243.999 196.2C243.999 205.8 251.799 214.1 261.899 214.1C271.499 214.1 279.799 206.3 279.799 196.2C279.299 186.1 271.499 178.3 261.899 178.3ZM357.199 195.7C352.199 196.6 348.999 200.7 349.399 205.8C350.299 210.8 354.399 214 359.499 213.6H555.199C558.399 213.6 561.599 211.8 562.999 209C564.399 206.3 564.399 202.6 562.999 199.8C561.199 197.1 558.399 195.2 555.199 195.2H359.499C358.999 195.2 358.999 195.2 358.599 195.2C358.199 195.2 358.099 195.2 357.699 195.2C357.599 195.7 357.199 195.7 357.199 195.7ZM183.899 230.1L218.299 271.8L222.899 277.3L228.899 274.1L255.899 260.8L297.099 299.8V320.4H137.099V270L183.899 230.1ZM357.199 258C352.199 258.9 348.499 263 349.399 268.1C350.299 273.2 354.399 276.3 359.499 275.9H519.499C522.699 275.9 525.499 274.1 527.299 271.3C528.699 268.6 528.699 264.9 527.299 262.1C525.499 259.4 522.699 257.5 519.499 257.5H359.499C358.999 257.5 358.999 257.5 358.599 257.5C358.199 257.5 358.099 257.5 357.699 257.5C357.599 258 357.199 258 357.199 258ZM119.299 391.4V587.1H314.999V391.4H119.299ZM137.199 409.3H297.199V569.3H137.199V409.3ZM232.499 436.3C231.099 436.3 230.199 436.3 229.299 436.8C224.699 437.3 220.599 439.1 217.399 440.9C214.199 442.7 213.699 443.2 211.899 444.6C208.699 442.8 205.499 441.4 200.399 440.5C193.999 439.6 185.299 440.5 178.899 446.5C170.699 454.3 170.699 465.3 171.999 472.2C172.899 475.9 173.399 476.3 174.299 478.6C172.499 480.4 171.999 480.4 169.699 483.2C165.599 489.2 161.499 498.8 165.099 508.9C166.899 513.9 170.599 518.1 174.699 520.4C182.499 525 189.399 525 194.899 524.5C197.599 529.1 201.299 534.6 208.599 538.7C211.799 540.5 216.399 541.9 220.999 541.9C226.499 541.4 231.499 539.1 234.699 535.9C237.899 532.7 240.199 529 241.599 525.8C243.399 522.1 243.399 521.2 243.899 518.5C246.199 518 247.099 518 250.799 516.7C257.699 514.4 266.799 508.9 269.599 498.4C271.899 488.8 266.899 480.5 262.299 475.5C259.099 472.3 256.799 470.9 254.499 469.5C254.999 467.2 255.399 466.3 254.999 462.2C254.499 454.9 252.699 444.8 243.099 439.3C239.899 437.2 236.199 436.3 232.499 436.3ZM357.199 453.7C352.199 454.6 348.999 458.7 349.399 463.8C350.299 468.8 354.399 472 359.499 471.6H555.199C558.399 471.6 561.599 469.8 562.999 467C564.399 464.3 564.399 460.6 562.999 457.8C561.199 455.1 558.399 453.2 555.199 453.2H359.499C358.999 453.2 358.999 453.2 358.599 453.2C358.199 453.2 358.099 453.2 357.699 453.2C357.599 453.7 357.199 453.7 357.199 453.7ZM232.999 453.7C233.499 453.7 233.899 454.2 234.399 454.2C235.799 455.1 237.099 458.3 237.599 462.9C238.099 467.5 237.099 471.6 237.099 471.6L235.299 478.5L241.299 481.7C241.299 481.7 241.299 481.7 241.799 482.2C243.199 483.1 247.299 485.4 249.999 488.2C252.699 490.9 253.699 492.8 253.199 494.6C252.699 496.9 249.999 499.2 245.899 500.6C241.799 502 237.699 502.4 237.699 502.4L230.799 502.9L229.399 509.3C229.399 509.3 228.499 513.9 226.199 518C225.299 520.3 223.899 522.1 222.999 523.5C222.099 524.4 221.599 524.4 221.199 524.4C220.299 524.4 219.799 524.4 218.499 523.5C214.399 521.2 208.399 511.6 208.399 511.6L205.699 505.6L198.799 506.5C198.799 506.5 187.799 507 184.099 505.1C183.199 504.6 182.699 504.2 182.299 503.3C181.399 500.6 182.299 497.3 184.599 493.7C186.899 490 190.099 487.7 190.099 487.7L195.599 483.1L191.899 476.7C191.899 476.7 190.099 473.5 189.599 469.4C188.699 465.3 188.699 462.1 191.399 459.8C193.199 458 194.599 458 197.399 458.4C200.199 458.8 203.799 460.7 205.599 461.6C206.999 462.5 207.399 462.5 207.399 462.5L213.399 467.1L218.399 462.1C218.399 462.1 221.599 459.4 225.699 457.1C227.499 456.2 229.399 455.3 230.699 454.8C232.099 454.2 232.499 453.7 232.999 453.7ZM224.699 467.9C219.699 469.3 216.499 483.9 216.499 483.9C216.499 483.9 208.699 466 202.799 471.1C197.299 475.7 214.699 485.8 214.699 485.8C214.699 485.8 195.899 488.1 198.199 494.5C200.499 500.9 216.099 487.6 216.099 487.6C216.099 487.6 211.999 507.8 219.299 506.4C226.599 505 218.399 487.2 218.399 487.2C218.399 487.2 236.299 497.3 237.199 489.9C238.099 482.6 218.899 484.9 218.899 484.9C218.899 484.9 233.599 471.2 227.099 467.5C226.099 467.5 225.199 467.5 224.699 467.9ZM357.199 516.1C352.199 517 348.999 521.1 349.399 526.2C350.299 531.2 354.399 534.4 359.499 534H519.499C522.699 534 525.499 532.2 527.299 529.4C528.699 526.7 528.699 523 527.299 520.2C525.499 517.5 522.699 515.6 519.499 515.6H359.499C358.999 515.6 358.999 515.6 358.599 515.6C358.199 515.6 358.099 515.6 357.699 515.6C357.599 516.1 357.199 516.1 357.199 516.1Z" fill="#90273A"/>
</svg>
