<svg width="35" height="35" viewBox="0 0 35 35" fill="none" xmlns="http://www.w3.org/2000/svg">
<path d="M15.4921 17.4916L0.415233 2.40892C0.149251 2.14178 4.50548e-05 1.78018 0.000296112 1.40331C0.00054717 1.02645 0.150234 0.66504 0.416571 0.398252C0.949675 -0.131858 1.88863 -0.134535 2.4271 0.40093L17.5 15.4836L32.5782 0.396913C33.114 -0.131858 34.053 -0.129181 34.5861 0.39959C34.7184 0.531306 34.8231 0.688042 34.8942 0.86065C34.9653 1.03326 35.0012 1.21828 35 1.40493C35 1.78511 34.8526 2.14119 34.5861 2.40491L19.5092 17.4903L34.5847 32.577C34.8508 32.8446 34.9998 33.2067 34.999 33.5838C34.9982 33.961 34.8478 34.3225 34.5807 34.589C34.3222 34.8447 33.9565 34.992 33.5788 34.992H33.5708C33.1917 34.9906 32.826 34.842 32.5729 34.5837L17.5 19.501L2.42174 34.5877C2.15519 34.8527 1.79889 35 1.42116 35C1.23438 35.0005 1.04934 34.9641 0.876682 34.893C0.704019 34.8218 0.547142 34.7172 0.415069 34.5852C0.282996 34.4532 0.178335 34.2964 0.107102 34.1238C0.0358702 33.9513 -0.000525508 33.7663 4.86426e-06 33.5797C4.86426e-06 33.2008 0.147342 32.8434 0.415233 32.5797L15.4921 17.4916Z" fill="#90273A"/>
</svg>
