<svg width="42" height="33" viewBox="0 0 42 33" fill="none" xmlns="http://www.w3.org/2000/svg">
<path fill-rule="evenodd" clip-rule="evenodd" d="M0 31.1667C0 30.6804 0.201136 30.2141 0.55916 29.8703C0.917184 29.5265 1.40277 29.3333 1.90909 29.3333H40.0909C40.5972 29.3333 41.0828 29.5265 41.4408 29.8703C41.7989 30.2141 42 30.6804 42 31.1667C42 31.6529 41.7989 32.1192 41.4408 32.463C41.0828 32.8068 40.5972 33 40.0909 33H1.90909C1.40277 33 0.917184 32.8068 0.55916 32.463C0.201136 32.1192 0 31.6529 0 31.1667ZM0 16.5C0 16.0138 0.201136 15.5475 0.55916 15.2036C0.917184 14.8598 1.40277 14.6667 1.90909 14.6667H40.0909C40.5972 14.6667 41.0828 14.8598 41.4408 15.2036C41.7989 15.5475 42 16.0138 42 16.5C42 16.9862 41.7989 17.4525 41.4408 17.7964C41.0828 18.1402 40.5972 18.3333 40.0909 18.3333H1.90909C1.40277 18.3333 0.917184 18.1402 0.55916 17.7964C0.201136 17.4525 0 16.9862 0 16.5ZM0 1.83333C0 1.3471 0.201136 0.880788 0.55916 0.536971C0.917184 0.193155 1.40277 0 1.90909 0H40.0909C40.5972 0 41.0828 0.193155 41.4408 0.536971C41.7989 0.880788 42 1.3471 42 1.83333C42 2.31956 41.7989 2.78588 41.4408 3.1297C41.0828 3.47351 40.5972 3.66667 40.0909 3.66667H1.90909C1.40277 3.66667 0.917184 3.47351 0.55916 3.1297C0.201136 2.78588 0 2.31956 0 1.83333Z" fill="#90273A"/>
</svg>
