<svg width="29" height="22" viewBox="0 0 29 22" fill="none" xmlns="http://www.w3.org/2000/svg">
<path d="M27.3156 16.0402C27.4288 15.4344 27.4288 14.8156 27.3156 14.2098L28.439 13.5695C28.5696 13.4965 28.6262 13.3461 28.5826 13.2043C28.2909 12.2762 27.7902 11.434 27.1371 10.7379C27.0369 10.6305 26.8758 10.6047 26.7452 10.6777L25.6218 11.318C25.1472 10.9184 24.6029 10.609 24.0151 10.4027V9.12227C24.0151 8.97617 23.9106 8.84727 23.7669 8.81719C22.796 8.60234 21.8076 8.61094 20.8845 8.81719C20.7408 8.84727 20.6363 8.97617 20.6363 9.12227V10.4027C20.0485 10.609 19.5042 10.9184 19.0296 11.318L17.9062 10.6777C17.78 10.6047 17.6145 10.6305 17.5144 10.7379C16.8612 11.434 16.3605 12.2762 16.0688 13.2043C16.0252 13.3461 16.0862 13.4965 16.2125 13.5695L17.3358 14.2098C17.2226 14.8156 17.2226 15.4344 17.3358 16.0402L16.2125 16.6805C16.0818 16.7535 16.0252 16.9039 16.0688 17.0457C16.3605 17.9738 16.8612 18.8117 17.5144 19.5121C17.6145 19.6195 17.7756 19.6453 17.9062 19.5723L19.0296 18.932C19.5042 19.3316 20.0485 19.641 20.6363 19.8473V21.1277C20.6363 21.2738 20.7408 21.4027 20.8845 21.4328C21.8555 21.6477 22.8439 21.6391 23.7669 21.4328C23.9106 21.4027 24.0151 21.2738 24.0151 21.1277V19.8473C24.6029 19.641 25.1472 19.3316 25.6218 18.932L26.7452 19.5723C26.8715 19.6453 27.0369 19.6195 27.1371 19.5121C27.7902 18.816 28.2909 17.9738 28.5826 17.0457C28.6262 16.9039 28.5652 16.7535 28.439 16.6805L27.3156 16.0402ZM22.3301 17.209C21.1631 17.209 20.2183 16.2723 20.2183 15.125C20.2183 13.9777 21.1675 13.041 22.3301 13.041C23.4926 13.041 24.4418 13.9777 24.4418 15.125C24.4418 16.2723 23.497 17.209 22.3301 17.209ZM10.4867 11C13.5651 11 16.0601 8.53789 16.0601 5.5C16.0601 2.46211 13.5651 0 10.4867 0C7.40834 0 4.9134 2.46211 4.9134 5.5C4.9134 8.53789 7.40834 11 10.4867 11ZM19.2473 20.7324C19.1472 20.6809 19.047 20.6207 18.9512 20.5648L18.6073 20.7625C18.346 20.9086 18.0499 20.9902 17.7538 20.9902C17.2792 20.9902 16.822 20.7926 16.4955 20.4488C15.6987 19.598 15.0891 18.5625 14.7451 17.4582C14.5056 16.6977 14.8278 15.8941 15.5245 15.4945L15.8685 15.2969C15.8641 15.1852 15.8641 15.0734 15.8685 14.9617L15.5245 14.7641C14.8278 14.3688 14.5056 13.5609 14.7451 12.8004C14.7843 12.6758 14.8409 12.5512 14.8844 12.4266C14.719 12.4137 14.5579 12.375 14.3881 12.375H13.6609C12.6943 12.8133 11.6188 13.0625 10.4867 13.0625C9.35465 13.0625 8.28352 12.8133 7.31254 12.375H6.5854C3.35461 12.375 0.733398 14.9617 0.733398 18.15V19.9375C0.733398 21.0762 1.66954 22 2.8234 22H18.1501C18.5898 22 18.9991 21.8625 19.3344 21.6348C19.2821 21.4715 19.2473 21.3039 19.2473 21.1277V20.7324Z" fill="#90273A"/>
</svg>
