<svg width="767" height="701" viewBox="0 0 767 701" fill="none" xmlns="http://www.w3.org/2000/svg">
<path fill-rule="evenodd" clip-rule="evenodd" d="M64.6983 179C23.9983 102.1 34.8983 63.5996 128.398 25.9996C222.298 -11.6004 633.598 -5.60044 603.398 25.9996C573.198 57.5996 609.798 47.9996 598.798 57.0996C567.198 77.2996 530.998 75.8996 495.198 76.8996C412.798 77.7996 330.798 76.8996 248.298 77.3996C185.998 77.8996 136.498 98.4996 108.098 157.1C97.1983 171.2 84.3983 182.2 64.6983 179Z" fill="#C2C3C9"/>
<path fill-rule="evenodd" clip-rule="evenodd" d="M583.599 53C583.599 45.7 583.599 38.8 583.599 31.5C590.899 31.5 597.799 31.5 605.099 31.5C622.499 62.2 657.799 46.2 680.699 60.4C709.099 78.7 701.799 91.5 671.999 97C652.299 113.9 665.599 142.8 649.599 161.1C649.599 175.3 649.599 189 649.599 203.2C590.499 204.6 579.099 152.4 551.999 117.1C542.899 86 559.799 67.7 583.599 53Z" fill="#AEADB3"/>
<path fill-rule="evenodd" clip-rule="evenodd" d="M64.6989 179C72.4989 171.2 79.7989 163.4 87.5989 155.6C176.899 54.3997 304.199 73.5997 401.299 101.1C497.499 128.2 590.999 192.3 682.999 245C733.399 294.9 739.799 352.6 712.799 416.3C711.899 433.7 706.399 448.8 688.999 457.5C667.499 479.9 671.599 512.5 657.399 538.1C624.899 572.5 571.799 589.9 541.099 572C457.299 523.5 432.999 570.6 409.699 633.8C245.699 718.1 255.799 704.8 123.399 566.5C3.2989 440.1 -2.2011 321.4 64.6989 179Z" fill="#EDEEF0"/>
<path fill-rule="evenodd" clip-rule="evenodd" d="M668.4 263.7C641.8 268.7 644.1 163.4 591 247.2C570.4 279.7 548.9 228.9 530.1 211.5C413.3 103 214.9 78.1995 87.5996 155.6C103.2 76.8995 153.1 45.2995 231 47.4995C318.9 49.7995 407.3 49.2995 495.7 49.7995C524.1 71.2995 539.2 111.2 582.7 111.6C625.8 126.3 635.4 174.8 669.3 198.6C676.6 205.5 684.4 212.3 691.7 219.2C704.1 244.5 683.5 252.7 668.4 263.7Z" fill="#D8D9DD"/>
<path fill-rule="evenodd" clip-rule="evenodd" d="M410.1 633.8C441.7 575.2 367.5 599 356.1 561C429.8 561.5 489.4 532.6 532.9 479C571.8 515.2 527.9 531.2 534.7 560.1C577.3 566.5 612.6 547.3 646.5 523.5C686.8 520.8 681.3 541.8 668.5 566.1C582.3 588.5 496.2 610.9 410.1 633.8Z" fill="#D8D9DD"/>
<path fill-rule="evenodd" clip-rule="evenodd" d="M668.398 263.7C676.198 249 683.498 233.9 691.298 219.3C749.898 279.3 815.898 338.4 712.798 416.2C699.098 365 715.498 305 668.398 263.7Z" fill="#C2C3C9"/>
<path fill-rule="evenodd" clip-rule="evenodd" d="M668.398 565.999C666.998 548.599 664.298 532.099 646.398 523.399C646.398 492.299 658.298 468.399 689.498 457.399C666.098 490.399 748.098 543.599 668.398 565.999Z" fill="#C2C3C9"/>
<path fill-rule="evenodd" clip-rule="evenodd" d="M649.099 166.599C637.199 138.199 608.799 92.8993 668.299 90.0993C698.499 79.0993 717.299 154.199 717.299 154.199C717.299 154.199 658.799 195.899 649.099 166.599Z" fill="#C2C3C9"/>
<path fill-rule="evenodd" clip-rule="evenodd" d="M582.299 111.7C575.899 123.2 564.899 144.7 563.099 143.8C521.899 126.4 492.599 99.3996 495.299 49.8996C531.499 49.3996 567.199 48.4996 603.399 48.0996C596.499 69.0996 589.099 90.0996 582.299 111.7Z" fill="#C2C3C9"/>
<path fill-rule="evenodd" clip-rule="evenodd" d="M151.699 681C144.799 678.7 137.999 676.9 131.099 674.6C45.4993 652.1 19.3993 572 6.49932 506.5C-5.90068 442.4 3.79932 368.6 7.39932 299C21.5993 254.6 53.6993 234 98.9993 230.8C109.499 226.2 120.099 224.8 130.099 232.6C149.799 238.6 167.699 226.6 186.399 227.1C216.199 235.8 241.799 261.9 240.899 285.3C236.799 349 271.599 349 315.599 344.4C413.599 415.4 402.599 413.6 360.499 531.7C322.599 639.8 254.799 677.8 151.699 681Z" fill="#F7F7F8"/>
<path fill-rule="evenodd" clip-rule="evenodd" d="M63.2988 630.599C50.4988 629.699 37.6988 628.299 25.2988 626.899C26.6988 614.099 27.5988 601.299 28.9988 588.399C86.2988 563.199 63.7988 497.299 93.5988 459.699C130.699 412.099 152.199 427.599 157.299 481.699C184.299 520.199 237.499 500.899 267.199 532.999C291.899 535.299 317.099 537.999 342.299 540.299C334.499 645.199 239.699 657.099 172.799 698.799C115.599 708.899 85.7988 675.899 63.2988 630.599Z" fill="#F7F7F8"/>
<path d="M343.198 118.5C221.798 118.5 123.398 217 123.398 338.3C123.398 459.6 221.898 558.1 343.198 558.1C464.498 558.1 562.998 459.8 562.998 338.4C562.998 217 464.598 118.5 343.198 118.5ZM343.198 137.3C454.498 137.3 544.298 227.1 544.298 338.4C544.298 449.7 454.498 539.5 343.198 539.5C231.898 539.5 142.098 449.7 142.098 338.4C142.598 227.5 232.298 137.3 343.198 137.3ZM343.198 204.6C327.198 204.6 314.298 217.4 314.298 233.5C314.298 249.6 327.098 262.4 343.198 262.4C359.198 262.4 372.098 249.6 372.098 233.5C372.098 217.4 359.198 204.6 343.198 204.6ZM305.198 299.9V319.1H324.398V443.7H305.198V463H381.698V443.8H362.498V299.9H305.198Z" fill="#90273A"/>
</svg>
