<svg width="20" height="20" viewBox="0 0 20 20" fill="none" xmlns="http://www.w3.org/2000/svg">
<path d="M15.4671 0.526183C15.636 0.691892 15.77 0.888723 15.8615 1.10541C15.9529 1.3221 16 1.55438 16 1.78897C16 2.02356 15.9529 2.25584 15.8615 2.47253C15.77 2.68922 15.636 2.88605 15.4671 3.05176L8.39633 10.0016L15.4671 16.9514C15.8078 17.2863 15.9992 17.7405 15.9992 18.2141C15.9992 18.6878 15.8078 19.142 15.4671 19.4769C15.1263 19.8118 14.6642 20 14.1823 20C13.7004 20 13.2383 19.8118 12.8975 19.4769L4.53293 11.2554C4.36399 11.0897 4.22997 10.8928 4.13852 10.6762C4.04707 10.4595 4 10.2272 4 9.9926C4 9.75801 4.04707 9.52573 4.13852 9.30904C4.22997 9.09236 4.36399 8.89553 4.53293 8.72982L12.8975 0.508271C13.59 -0.17238 14.7563 -0.17238 15.4671 0.526183Z" fill="#90273A"/>
</svg>
