<svg width="21" height="24" viewBox="0 0 21 24" fill="none" xmlns="http://www.w3.org/2000/svg">
<path d="M10.4997 5.64233C9.7355 5.64233 8.98844 5.83486 8.35301 6.19558C7.71758 6.55629 7.22233 7.06898 6.92987 7.66883C6.63742 8.26867 6.5609 8.92872 6.70999 9.56551C6.85908 10.2023 7.22709 10.7872 7.76747 11.2463C8.30786 11.7054 8.99636 12.0181 9.74589 12.1447C10.4954 12.2714 11.2723 12.2064 11.9784 11.9579C12.6844 11.7095 13.2879 11.2887 13.7125 10.7489C14.1371 10.209 14.3637 9.57435 14.3637 8.92508C14.3625 8.05475 13.9551 7.22034 13.2307 6.60492C12.5063 5.9895 11.5241 5.64333 10.4997 5.64233V5.64233ZM10.4997 10.5665C10.1176 10.5665 9.74408 10.4702 9.42636 10.2898C9.10865 10.1095 8.86102 9.85313 8.71479 9.55321C8.56857 9.25328 8.53031 8.92326 8.60485 8.60486C8.6794 8.28647 8.8634 7.994 9.1336 7.76445C9.40379 7.5349 9.74804 7.37858 10.1228 7.31524C10.4976 7.25191 10.886 7.28442 11.2391 7.40865C11.5921 7.53288 11.8938 7.74326 12.1061 8.01318C12.3184 8.2831 12.4317 8.60045 12.4317 8.92508C12.4311 9.36024 12.2274 9.77744 11.8652 10.0852C11.503 10.3929 11.0119 10.566 10.4997 10.5665V10.5665Z" fill="#90273A"/>
<path d="M17.9245 2.6121C16.0887 1.05282 13.6381 0.126539 11.0456 0.0120392C8.45323 -0.10246 5.90277 0.602936 3.88653 1.99208C1.87028 3.38123 0.531176 5.35565 0.127662 7.53429C-0.275852 9.71292 0.284829 11.9413 1.70149 13.7894L9.00121 23.31C9.16365 23.5219 9.38576 23.6959 9.6474 23.8164C9.90905 23.9369 10.2019 24 10.4996 24C10.7972 24 11.0901 23.9369 11.3517 23.8164C11.6133 23.6959 11.8355 23.5219 11.9979 23.31L19.2978 13.7894C20.6124 12.075 21.1933 10.0289 20.9432 7.99393C20.6932 5.95896 19.6274 4.05886 17.9245 2.6121V2.6121ZM17.6791 12.8935L10.4996 22.257L3.32002 12.8935C1.12238 10.0273 1.59373 6.19157 4.44075 3.7727C5.2364 3.09672 6.18098 2.5605 7.22056 2.19466C8.26013 1.82881 9.37435 1.64052 10.4996 1.64052C11.6248 1.64052 12.739 1.82881 13.7786 2.19466C14.8182 2.5605 15.7628 3.09672 16.5584 3.7727C19.4054 6.19157 19.8767 10.0273 17.6791 12.8935Z" fill="#90273A"/>
</svg>
