<svg width="22" height="25" viewBox="0 0 22 25" fill="none" xmlns="http://www.w3.org/2000/svg">
<g filter="url(#filter0_d)">
<path d="M14.7331 21C14.407 20.8684 14.1741 20.5743 14.1198 20.226C14.081 20.0247 14.1198 19.8854 14.4303 19.3281C15.5948 17.2383 16.1925 14.8776 16.1614 12.4859C16.1925 10.1638 15.6258 7.896 14.5079 5.86035C14.3449 5.51978 14.1974 5.1947 14.0732 4.84639C14.1198 4.55227 14.2673 4.28137 14.5079 4.11882C14.8573 3.93306 15.2842 3.97176 15.6025 4.18848C15.8199 4.46713 16.0062 4.74577 16.1614 5.07086C16.9967 6.66601 17.5657 8.38622 17.846 10.1638C18.0245 11.5648 18.0478 12.989 17.9159 14.3977C17.6752 16.2089 17.1396 17.9581 16.3167 19.5913C15.8199 20.582 15.5404 21 15.2454 21H14.7331ZM11.3484 19.2894C10.9059 19.1656 10.6265 18.7167 10.7196 18.2677C10.7196 18.1749 10.9603 17.7492 11.1777 17.3157C12.0937 15.5587 12.4896 13.5772 12.311 11.6035C12.2024 10.1871 11.7909 8.80933 11.1155 7.56317C10.6265 6.58792 10.5954 6.43312 10.8827 6.01515C11.2242 5.63588 11.7909 5.5817 12.2101 5.90679C12.7691 6.72724 13.2115 7.62509 13.5376 8.56939C14.5312 11.5029 14.376 14.6996 13.1029 17.517C12.4508 18.9798 11.9928 19.452 11.3484 19.2507V19.2894ZM7.85512 17.5634C7.7169 17.5015 7.59428 17.4097 7.49623 17.2945C7.39819 17.1793 7.32719 17.0438 7.28843 16.8977C7.28843 16.7429 7.28843 16.5417 7.63776 15.9225C8.20684 14.8938 8.5053 13.7381 8.5053 12.5633C8.5053 11.3885 8.20684 10.2328 7.63776 9.20407C7.13317 8.22882 7.13317 8.02758 7.5446 7.65605C7.6921 7.48577 7.90946 7.40063 8.14235 7.43159C8.63918 7.43159 8.91864 7.67153 9.33784 8.54616C9.99789 9.75449 10.3398 11.11 10.3315 12.4859C10.3625 13.8868 10.021 15.2801 9.3456 16.5107C8.9264 17.3234 8.7168 17.517 8.29761 17.5866C8.15011 17.6021 7.99485 17.5866 7.85512 17.517V17.5634ZM4.58693 15.9147C4.33075 15.7909 4.12892 15.5819 4.028 15.311C3.95037 15.0401 4.028 14.8079 4.33852 14.3125C4.72666 13.7862 4.91297 13.136 4.87416 12.4859C4.9285 11.828 4.74995 11.1778 4.36957 10.636C4.24072 10.4409 4.12655 10.2365 4.028 10.0245C3.94261 9.5369 4.26865 9.07249 4.80429 8.97961C5.22349 8.90221 5.51848 9.08023 5.90663 9.66848C6.45736 10.5041 6.75081 11.4821 6.75081 12.482C6.75081 13.4819 6.45736 14.4599 5.90663 15.2955C5.51072 15.8915 5.06047 16.0696 4.59469 15.9147H4.58693Z" fill="white"/>
</g>
<defs>
<filter id="filter0_d" x="0" y="0" width="22" height="25" filterUnits="userSpaceOnUse" color-interpolation-filters="sRGB">
<feFlood flood-opacity="0" result="BackgroundImageFix"/>
<feColorMatrix in="SourceAlpha" type="matrix" values="0 0 0 0 0 0 0 0 0 0 0 0 0 0 0 0 0 0 127 0"/>
<feOffset/>
<feGaussianBlur stdDeviation="2"/>
<feColorMatrix type="matrix" values="0 0 0 0 0 0 0 0 0 0 0 0 0 0 0 0 0 0 0.25 0"/>
<feBlend mode="normal" in2="BackgroundImageFix" result="effect1_dropShadow"/>
<feBlend mode="normal" in="SourceGraphic" in2="effect1_dropShadow" result="shape"/>
</filter>
</defs>
</svg>
