<svg width="22" height="20" viewBox="0 0 22 20" fill="none" xmlns="http://www.w3.org/2000/svg">
<path d="M18.3785 0.00585938H3.60396C2.7643 0.00585938 1.95902 0.332758 1.36528 0.91464C0.771546 1.49652 0.437988 2.28572 0.437988 3.10863V18.6225C0.438311 18.8058 0.488315 18.9856 0.582885 19.1438C0.677455 19.3019 0.813192 19.4325 0.976204 19.5223C1.13393 19.6099 1.31202 19.6562 1.49331 19.6567C1.68273 19.6567 1.86863 19.6067 2.03153 19.512L6.76994 16.6988C6.94509 16.5966 7.14669 16.5463 7.35037 16.554H18.3785C19.2182 16.554 20.0235 16.2271 20.6172 15.6452C21.2109 15.0633 21.5445 14.2741 21.5445 13.4512V3.10863C21.5445 2.28572 21.2109 1.49652 20.6172 0.91464C20.0235 0.332758 19.2182 0.00585938 18.3785 0.00585938ZM19.4338 13.4512C19.4338 13.7255 19.3227 13.9886 19.1248 14.1825C18.9268 14.3765 18.6584 14.4855 18.3785 14.4855H7.35037C6.77398 14.485 6.20839 14.6388 5.71462 14.9302L2.54864 16.7919V3.10863C2.54864 2.83433 2.65983 2.57126 2.85774 2.3773C3.05565 2.18334 3.32407 2.07437 3.60396 2.07437H18.3785C18.6584 2.07437 18.9268 2.18334 19.1248 2.3773C19.3227 2.57126 19.4338 2.83433 19.4338 3.10863V13.4512Z" fill="#90273A"/>
</svg>
