<svg width="14" height="12" viewBox="0 0 14 12" fill="none" xmlns="http://www.w3.org/2000/svg">
<path d="M2.6 5H8.4C8.952 5 9 5.447 9 6C9 6.553 8.952 7 8.4 7H2.6C2.048 7 2 6.553 2 6C2 5.447 2.048 5 2.6 5ZM0.6 10H8.4C8.952 10 9 10.447 9 11C9 11.553 8.952 12 8.4 12H0.6C0.0480003 12 0 11.553 0 11C0 10.447 0.0480003 10 0.6 10ZM8.4 2H0.6C0.0480003 2 0 1.553 0 1C0 0.447 0.0480003 0 0.6 0H8.4C8.952 0 9 0.447 9 1C9 1.553 8.952 2 8.4 2ZM11.6 5H13.4C13.952 5 14 5.447 14 6C14 6.553 13.952 7 13.4 7H11.6C11.048 7 11 6.553 11 6C11 5.447 11.048 5 11.6 5ZM11.6 10H13.4C13.952 10 14 10.447 14 11C14 11.553 13.952 12 13.4 12H11.6C11.048 12 11 11.553 11 11C11 10.447 11.048 10 11.6 10ZM11.6 0H13.4C13.952 0 14 0.447 14 1C14 1.553 13.952 2 13.4 2H11.6C11.048 2 11 1.553 11 1C11 0.447 11.048 0 11.6 0Z" fill="#494949"/>
</svg>
