<svg width="44" height="49" viewBox="0 0 44 49" fill="none" xmlns="http://www.w3.org/2000/svg">
<path d="M22 0.479996C14.7297 0.479996 8.8 6.40968 8.8 13.68C8.8 20.9503 14.7297 26.88 22 26.88C29.2703 26.88 35.2 20.9503 35.2 13.68C35.2 6.40968 29.2703 0.479996 22 0.479996ZM22 26.88C9.88281 26.88 0 36.7628 0 48.88H4.4C4.4 39.1347 12.2547 31.28 22 31.28C31.7453 31.28 39.6 39.1347 39.6 48.88H44C44 36.7628 34.1172 26.88 22 26.88ZM22 4.88C26.8813 4.88 30.8 8.79875 30.8 13.68C30.8 18.5612 26.8813 22.48 22 22.48C17.1187 22.48 13.2 18.5612 13.2 13.68C13.2 8.79875 17.1187 4.88 22 4.88Z" fill="#CECECE"/>
</svg>
