<svg width="24" height="26" viewBox="0 0 24 26" fill="none" xmlns="http://www.w3.org/2000/svg">
<path d="M22.9993 18.9686V22.5816C23.0006 22.917 22.9375 23.249 22.814 23.5563C22.6906 23.8636 22.5096 24.1395 22.2826 24.3662C22.0556 24.593 21.7876 24.7656 21.4958 24.873C21.2039 24.9805 20.8947 25.0204 20.5879 24.9902C17.1841 24.5875 13.9145 23.3212 11.0418 21.293C8.36914 19.4439 6.10319 16.9769 4.40487 14.067C2.53545 10.9252 1.37207 7.34809 1.00898 3.62554C0.981336 3.29251 1.01769 2.95685 1.11572 2.63995C1.21376 2.32305 1.37132 2.03185 1.57839 1.78488C1.78546 1.53791 2.03749 1.34059 2.31843 1.20548C2.59938 1.07037 2.90309 1.00043 3.21023 1.00012H6.52869C7.06551 0.994364 7.58594 1.20133 7.99297 1.58245C8.4 1.96356 8.66586 2.49281 8.74099 3.07155C8.88106 4.22778 9.14081 5.36305 9.5153 6.4557C9.66413 6.88675 9.69634 7.35522 9.60812 7.8056C9.51989 8.25597 9.31494 8.66938 9.01753 8.99682L7.61272 10.5263C9.18739 13.5414 11.4803 16.0378 14.2496 17.7522L15.6545 16.2228C15.9552 15.899 16.3349 15.6758 16.7486 15.5798C17.1622 15.4837 17.5925 15.5188 17.9884 15.6808C18.992 16.0885 20.0348 16.3713 21.0967 16.5238C21.6341 16.6064 22.1248 16.901 22.4756 17.3518C22.8264 17.8026 23.0128 18.378 22.9993 18.9686Z" stroke="#90273A" stroke-width="2" stroke-linecap="round" stroke-linejoin="round"/>
</svg>
