<svg width="769" height="703" viewBox="0 0 769 703" fill="none" xmlns="http://www.w3.org/2000/svg">
<path fill-rule="evenodd" clip-rule="evenodd" d="M64.8976 179.7C24.0976 102.5 35.0976 64 128.798 26.3C222.898 -11.4 635.298 -5.39999 604.998 26.3C574.698 58 611.398 48.3 600.398 57.5C568.698 77.7 532.398 76.3 496.598 77.2C413.898 78.1 331.798 77.2 249.098 77.7C186.698 78.2 137.098 98.8 108.598 157.6C97.4976 171.9 84.6976 182.9 64.8976 179.7Z" fill="#C2C3C9"/>
<path fill-rule="evenodd" clip-rule="evenodd" d="M585.199 53.3998C585.199 46.0998 585.199 39.1998 585.199 31.7998C592.499 31.7998 599.399 31.7998 606.799 31.7998C624.199 62.5998 659.599 46.4998 682.599 60.6998C711.099 79.0998 703.699 91.8998 673.899 97.3998C654.199 114.4 667.499 143.3 651.399 161.7C651.399 175.9 651.399 189.7 651.399 203.9C592.199 205.3 580.699 152.9 553.599 117.6C544.299 86.4998 561.299 68.0998 585.199 53.3998Z" fill="#AEADB3"/>
<path fill-rule="evenodd" clip-rule="evenodd" d="M64.8985 179.7C72.6985 171.9 80.0986 164.1 87.8986 156.3C177.399 54.7996 305.099 74.0996 402.399 101.7C498.799 128.8 592.499 193.1 684.799 245.9C735.299 295.9 741.698 353.8 714.599 417.6C713.698 435 708.199 450.2 690.699 458.9C669.099 481.4 673.299 514 658.999 539.7C626.399 574.1 573.099 591.6 542.399 573.7C458.399 525 433.999 572.3 410.599 635.7C246.199 720.2 256.299 706.9 123.599 568.2C3.39856 441.4 -2.10145 322.5 64.8985 179.7Z" fill="#EDEEF0"/>
<path fill-rule="evenodd" clip-rule="evenodd" d="M670.099 264.6C643.499 269.7 645.799 164 592.499 248.1C571.799 280.7 550.299 229.7 531.399 212.3C414.299 103.5 215.499 78.7004 87.7988 156.3C103.399 77.3004 153.499 45.6004 231.499 47.9004C319.699 50.2004 408.299 49.7004 496.899 50.2004C525.399 71.8004 540.499 111.7 584.099 112.2C627.299 126.9 636.899 175.6 670.899 199.4C678.199 206.3 686.099 213.2 693.399 220.1C705.899 245.3 685.299 253.6 670.099 264.6Z" fill="#D8D9DD"/>
<path fill-rule="evenodd" clip-rule="evenodd" d="M411.198 635.6C442.898 576.8 368.498 600.7 356.998 562.6C430.898 563.1 490.598 534.1 534.198 480.4C573.198 516.7 529.098 532.7 535.998 561.7C578.698 568.1 614.098 548.8 647.998 525C688.398 522.2 682.898 543.4 669.998 567.7C583.798 590.2 497.498 612.7 411.198 635.6Z" fill="#D8D9DD"/>
<path fill-rule="evenodd" clip-rule="evenodd" d="M670.098 264.6C677.898 249.9 685.298 234.8 693.098 220.1C751.898 280.3 817.998 339.5 714.698 417.5C700.898 366.1 717.398 306 670.098 264.6Z" fill="#C2C3C9"/>
<path fill-rule="evenodd" clip-rule="evenodd" d="M670.098 567.7C668.698 550.3 665.998 533.7 648.098 525C648.098 493.8 659.998 469.9 691.298 458.9C667.798 491.9 749.998 545.2 670.098 567.7Z" fill="#C2C3C9"/>
<path fill-rule="evenodd" clip-rule="evenodd" d="M650.798 167.3C638.898 138.8 610.398 93.3996 670.098 90.5996C700.398 79.5996 719.198 154.9 719.198 154.9C719.198 154.9 660.498 196.7 650.798 167.3Z" fill="#C2C3C9"/>
<path fill-rule="evenodd" clip-rule="evenodd" d="M583.798 112.2C577.398 123.7 566.398 145.3 564.498 144.3C523.198 126.9 493.798 99.8004 496.498 50.2004C532.798 49.7004 568.598 48.8004 604.898 48.4004C597.998 69.5004 590.698 90.6004 583.798 112.2Z" fill="#C2C3C9"/>
<path fill-rule="evenodd" clip-rule="evenodd" d="M152.199 682.9C145.299 680.6 138.399 678.8 131.499 676.5C45.6991 654 19.4991 573.6 6.59908 508C-5.80092 443.7 3.79908 369.8 7.49908 300C21.6991 255.5 53.8991 234.8 99.2991 231.6C109.899 227 120.399 225.6 130.499 233.4C150.199 239.4 168.199 227.4 186.999 227.9C216.799 236.6 242.599 262.8 241.599 286.2C237.499 350 272.399 350 316.399 345.4C414.699 416.6 403.599 414.7 361.399 533.2C323.499 641.6 255.499 679.7 152.199 682.9Z" fill="#F7F7F8"/>
<path fill-rule="evenodd" clip-rule="evenodd" d="M63.6 632.401C50.7 631.501 37.9 630.101 25.5 628.701C26.9 615.801 27.8 603 29.2 590.1C86.6 564.8 64.1 498.701 93.9 461.101C131.1 413.301 152.7 429.001 157.7 483.101C184.8 521.701 238.1 502.401 267.9 534.501C292.7 536.801 317.9 539.6 343.2 541.8C335.4 647 240.3 658.901 173.3 700.701C115.9 710.901 86.1 677.901 63.6 632.401Z" fill="#F7F7F8"/>
<path d="M123.699 176C113.599 176 105.299 184.3 105.299 194.4C105.299 204.5 113.599 212.8 123.699 212.8H164.099L211.899 404.3C215.999 420.4 230.299 431.9 247.299 431.9H474.599C491.099 431.9 504.899 420.9 509.499 405.3L556.799 231.3H518.699L474.499 395H247.199L199.399 203.1C195.299 187 180.999 175.5 163.999 175.5H123.599V176H123.699ZM451.999 431.3C422.199 431.3 397.399 456.1 397.399 485.9C397.399 515.7 422.199 540.5 451.999 540.5C481.799 540.5 506.599 515.7 506.599 485.9C506.699 456.1 481.899 431.3 451.999 431.3ZM287.599 431.3C257.799 431.3 232.999 456.1 232.999 485.9C232.999 515.7 257.799 540.5 287.599 540.5C317.399 540.5 342.199 515.7 342.199 485.9C342.299 456.1 317.899 431.3 287.599 431.3ZM342.299 176V230.6H287.699V266.9H342.299V321.5H378.599V266.9H433.199V230.6H378.599V176H342.299ZM287.599 467.6C297.699 467.6 305.999 475.4 305.999 486C305.999 496.1 298.199 504.4 287.599 504.4C276.999 504.4 269.199 496.6 269.199 486C269.299 475.8 277.499 467.6 287.599 467.6ZM451.999 467.6C462.099 467.6 470.399 475.4 470.399 486C470.399 496.1 462.599 504.4 451.999 504.4C441.399 504.4 433.599 496.6 433.599 486C433.699 475.8 441.499 467.6 451.999 467.6Z" fill="#90273A"/>
</svg>
