<svg width="770" height="703" viewBox="0 0 770 703" fill="none" xmlns="http://www.w3.org/2000/svg">
<path fill-rule="evenodd" clip-rule="evenodd" d="M65.3003 179.573C24.3003 102.373 35.4004 63.7735 129.1 26.0735C223.3 -11.6265 636.1 -5.62655 605.7 26.0735C575.4 57.7735 612.1 48.1735 601.1 57.3735C569.4 77.5735 533.1 76.1735 497.2 77.1735C414.5 78.0735 332.2 77.1735 249.5 77.6735C187 78.1735 137.4 98.7734 108.9 157.673C97.9003 171.773 85.0003 182.873 65.3003 179.573Z" fill="#9A3345"/>
<path fill-rule="evenodd" clip-rule="evenodd" d="M586.001 53.1732C586.001 45.7732 586.001 38.9732 586.001 31.5732C593.401 31.5732 600.201 31.5732 607.601 31.5732C625.101 62.3732 660.501 46.2732 683.401 60.5732C711.901 78.9732 704.501 91.8732 674.701 97.3732C654.901 114.373 668.301 143.373 652.201 161.673C652.201 175.873 652.201 189.673 652.201 203.973C592.901 205.373 581.401 152.973 554.301 117.573C544.601 86.7732 562.101 67.9732 586.001 53.1732Z" fill="#90273A"/>
<path fill-rule="evenodd" clip-rule="evenodd" d="M65.3007 179.573C73.1007 171.773 80.5007 163.973 88.3007 156.173C177.901 54.573 305.701 73.873 403.101 101.473C499.601 128.573 593.401 192.973 685.801 245.773C736.401 295.873 742.801 353.773 715.701 417.673C714.801 435.173 709.301 450.273 691.801 459.073C670.201 481.573 674.301 514.273 660.101 539.973C627.501 574.473 574.201 591.873 543.401 573.973C459.301 525.273 434.901 572.573 411.501 635.973C247.001 720.573 257.101 707.173 124.201 568.373C3.70071 441.573 -1.89928 322.573 65.3007 179.573Z" fill="#A8495B"/>
<path fill-rule="evenodd" clip-rule="evenodd" d="M671.001 264.674C644.301 269.774 646.601 163.974 593.301 248.174C572.601 280.774 551.001 229.774 532.201 212.274C415.001 103.774 216.001 78.4738 88.2012 156.174C103.901 77.0738 154.001 45.3738 232.101 47.6738C320.301 49.9738 409.101 49.4738 497.801 49.9738C526.301 71.5738 541.501 111.574 585.101 111.974C628.301 126.674 638.001 175.374 672.001 199.274C679.401 206.174 687.201 213.074 694.501 219.974C706.901 245.774 686.201 253.574 671.001 264.674Z" fill="#9F3C4E"/>
<path fill-rule="evenodd" clip-rule="evenodd" d="M411.802 635.973C443.502 577.173 369.102 601.073 357.602 562.873C431.602 563.373 491.302 534.373 535.002 480.573C574.102 516.873 529.902 532.973 536.802 561.973C579.502 568.373 614.902 549.073 648.902 525.173C689.302 522.373 683.802 543.573 671.002 567.873C584.602 590.473 498.202 613.473 411.802 635.973Z" fill="#A8495B"/>
<path fill-rule="evenodd" clip-rule="evenodd" d="M671 264.673C678.8 249.973 686.2 234.773 694 220.073C752.8 280.273 819 339.573 715.6 417.673C701.8 366.673 717.9 306.473 671 264.673Z" fill="#9A3345"/>
<path fill-rule="evenodd" clip-rule="evenodd" d="M671 567.973C669.6 550.473 666.9 533.973 648.9 525.273C648.9 493.973 660.9 470.073 692.1 459.073C668.7 492.173 751 545.973 671 567.973Z" fill="#9A3345"/>
<path fill-rule="evenodd" clip-rule="evenodd" d="M651.7 167.173C639.7 138.673 611.3 93.1731 671 90.3731C701.3 79.3731 720.2 154.673 720.2 154.673C720.2 154.673 661.4 197.073 651.7 167.173Z" fill="#9A3345"/>
<path fill-rule="evenodd" clip-rule="evenodd" d="M584.201 112.073C577.801 123.573 566.701 145.173 564.901 144.273C523.501 126.773 494.101 99.6734 496.901 50.0734C533.201 49.5734 569.101 48.6734 605.401 48.2734C598.401 69.2734 591.501 90.8734 584.201 112.073Z" fill="#9A3345"/>
<path fill-rule="evenodd" clip-rule="evenodd" d="M152.6 683.373C145.7 681.073 138.8 679.273 131.9 676.973C45.9999 654.473 19.2999 573.973 6.89987 508.773C-5.50013 444.473 4.09987 370.473 7.79987 300.573C21.9999 255.973 54.1999 235.273 99.6999 232.073C110.3 227.473 120.8 226.073 131 233.873C150.8 239.873 168.7 227.473 187.5 228.373C217.4 237.073 243.1 263.273 242.2 286.773C238.5 350.673 273.5 350.673 317.6 345.573C416 416.773 404.9 414.973 362.6 533.573C324 641.973 256 680.573 152.6 683.373Z" fill="#AE4E61"/>
<path fill-rule="evenodd" clip-rule="evenodd" d="M63.9008 632.774C51.0008 631.874 38.2008 630.474 25.8008 629.074C27.2008 616.174 28.1008 603.374 29.5008 590.474C87.0008 565.174 64.4008 498.974 94.3008 461.274C131.501 413.474 153.101 429.074 158.201 483.374C185.301 521.974 238.601 502.674 268.501 534.374C293.301 536.674 318.601 539.474 343.901 541.774C336.101 647.074 240.901 658.974 173.801 700.774C116.301 711.874 86.4008 678.274 63.9008 632.774Z" fill="#B75B6D"/>
<path d="M124.601 179.601C114.501 179.601 106.301 187.801 106.301 197.901C106.301 208.001 114.501 216.201 124.601 216.201H164.801L212.301 406.701C216.401 422.701 230.601 434.101 247.501 434.101H473.601C490.001 434.101 503.801 423.101 508.301 407.601L555.401 234.501H517.501L473.601 397.601H247.501L200.001 207.001C195.901 191.001 181.701 179.601 164.801 179.601H124.601ZM451.301 433.601C421.601 433.601 396.901 458.301 396.901 488.001C396.901 517.701 421.601 542.401 451.301 542.401C481.001 542.401 505.701 517.701 505.701 488.001C505.601 458.301 480.901 433.601 451.301 433.601ZM287.701 433.601C258.001 433.601 233.301 458.301 233.301 488.001C233.301 517.701 258.001 542.401 287.701 542.401C317.401 542.401 342.101 517.701 342.101 488.001C342.101 458.301 317.901 433.601 287.701 433.601ZM342.101 179.601V234.001H287.701V270.001H342.101V324.401H378.201V270.001H432.601V234.001H378.201V179.601H342.101ZM287.701 470.101C297.801 470.101 306.001 477.901 306.001 488.401C306.001 498.901 298.201 506.701 287.701 506.701C277.201 506.701 269.401 498.901 269.401 488.401C269.401 477.901 277.701 470.101 287.701 470.101ZM451.301 470.101C461.401 470.101 469.601 477.901 469.601 488.401C469.601 498.901 461.801 506.701 451.301 506.701C440.801 506.701 433.001 498.901 433.001 488.401C433.001 477.901 440.701 470.101 451.301 470.101Z" fill="white"/>
</svg>
