<svg width="11" height="21" viewBox="0 0 11 21" fill="none" xmlns="http://www.w3.org/2000/svg">
<path d="M0.727544 18.0237C0.479797 18.3041 0.340819 18.6826 0.340819 19.0772C0.340819 19.4717 0.479797 19.8503 0.727544 20.1306C0.849202 20.269 0.994215 20.379 1.15414 20.454C1.31407 20.529 1.48572 20.5677 1.6591 20.5677C1.83249 20.5677 2.00414 20.529 2.16407 20.454C2.32399 20.379 2.46901 20.269 2.59067 20.1306L9.95471 11.7116C10.2021 11.4306 10.3408 11.0518 10.3408 10.6571C10.3408 10.2623 10.2021 9.88351 9.95471 9.60252L2.59067 1.18349C2.46901 1.04507 2.324 0.935154 2.16407 0.860126C2.00414 0.785097 1.83249 0.746459 1.65911 0.746459C1.48572 0.746459 1.31407 0.785097 1.15415 0.860126C0.994216 0.935154 0.849203 1.04507 0.727546 1.18349C0.479798 1.46384 0.34082 1.84242 0.34082 2.23695C0.34082 2.63147 0.479798 3.01005 0.727546 3.2904L6.76683 10.6603L0.727544 18.0237Z" fill="#993B3B"/>
</svg>
