<svg width="12" height="10" viewBox="0 0 12 10" fill="none" xmlns="http://www.w3.org/2000/svg">
<path d="M2.14608 0.133054C2.23962 0.0478612 2.36649 0 2.49878 0C2.63107 0 2.75794 0.0478612 2.85148 0.133054C2.94503 0.218248 2.99758 0.333795 2.99758 0.454276C2.99758 0.574758 2.94503 0.690304 2.85148 0.775498C2.75794 0.860691 2.63107 0.908552 2.49878 0.908552C2.36649 0.908552 2.23962 0.860691 2.14608 0.775498C2.05253 0.690304 1.99998 0.574758 1.99998 0.454276C1.99998 0.333795 2.05253 0.218248 2.14608 0.133054Z" fill="#AAAAAA"/>
<path d="M2.14608 1.95016C2.23962 1.86497 2.36649 1.8171 2.49878 1.8171C2.63107 1.8171 2.75794 1.86497 2.85148 1.95016C2.94503 2.03535 2.99758 2.1509 2.99758 2.27138C2.99758 2.39186 2.94503 2.50741 2.85148 2.5926C2.75794 2.6778 2.63107 2.72566 2.49878 2.72566C2.36649 2.72566 2.23962 2.6778 2.14608 2.5926C2.05253 2.50741 1.99998 2.39186 1.99998 2.27138C1.99998 2.1509 2.05253 2.03535 2.14608 1.95016Z" fill="#AAAAAA"/>
<path d="M2.14091 3.76575C2.23297 3.67942 2.35887 3.62988 2.49099 3.628C2.55772 3.62705 2.62398 3.6383 2.68585 3.6611C2.74772 3.68389 2.80394 3.71776 2.85117 3.7607C2.89841 3.80364 2.93571 3.85477 2.96086 3.91108C2.98601 3.96738 2.99849 4.02771 2.99758 4.08848V8.44315L4.14131 7.40151C4.18727 7.35791 4.24232 7.3231 4.30324 7.29912C4.36416 7.27514 4.42971 7.26247 4.49607 7.26186C4.56244 7.26124 4.62826 7.27269 4.6897 7.29554C4.75115 7.31838 4.80696 7.35216 4.85389 7.3949C4.90082 7.43764 4.93791 7.48848 4.96299 7.54443C4.98808 7.60039 5.00065 7.66034 4.99997 7.72078C4.9993 7.78122 4.98539 7.84092 4.95906 7.8964C4.93273 7.95188 4.89451 8.00202 4.84664 8.04388L2.89626 9.82017L2.89431 9.82283C2.84759 9.8781 2.78752 9.92283 2.71876 9.95356C2.65 9.98428 2.5744 10.0002 2.49781 10C2.42123 9.99983 2.34571 9.9836 2.27712 9.95257C2.20852 9.92154 2.1487 9.87654 2.10227 9.82106L0.150923 8.04388C0.0798139 7.98085 0.0309596 7.89994 0.0106066 7.81149C-0.00974636 7.72304 -0.000673391 7.63107 0.0366651 7.54734C0.0740036 7.46362 0.137911 7.39193 0.220217 7.34146C0.302524 7.29098 0.39949 7.26401 0.498717 7.26398C0.565379 7.26399 0.631363 7.27616 0.692772 7.29978C0.754182 7.3234 0.80977 7.35799 0.856253 7.40151L1.99998 8.44315V4.08848C1.99817 3.96816 2.04886 3.85209 2.14091 3.76575Z" fill="#AAAAAA"/>
<path d="M9.49221 4.22477e-05C9.41654 0.00116269 9.34215 0.0179621 9.27466 0.0491674C9.20718 0.0803726 9.14838 0.125165 9.10271 0.18015L7.15328 1.95638C7.10543 1.99824 7.06723 2.04838 7.04092 2.10385C7.0146 2.15933 7.0007 2.21904 7.00003 2.27947C6.99935 2.33991 7.01192 2.39986 7.03699 2.45581C7.06206 2.51177 7.09913 2.5626 7.14604 2.60534C7.19294 2.64807 7.24873 2.68185 7.31014 2.7047C7.37155 2.72754 7.43735 2.73899 7.50368 2.73838C7.57 2.73776 7.63553 2.72509 7.69642 2.70112C7.75731 2.67714 7.81233 2.64233 7.85827 2.59874L9.00144 1.55713V5.91165C9.00051 5.97184 9.01271 6.03161 9.03735 6.08747C9.06199 6.14333 9.09856 6.19417 9.14495 6.23704C9.19134 6.27991 9.24661 6.31395 9.30756 6.33718C9.36852 6.36042 9.43393 6.37238 9.5 6.37238C9.56607 6.37238 9.63148 6.36042 9.69243 6.33718C9.75339 6.31395 9.80866 6.27991 9.85505 6.23704C9.90144 6.19417 9.93801 6.14333 9.96265 6.08747C9.98728 6.03161 9.99949 5.97184 9.99855 5.91165V1.55713L11.1417 2.59874C11.1877 2.64233 11.2427 2.67714 11.3036 2.70112C11.3645 2.7251 11.43 2.73776 11.4963 2.73838C11.5627 2.73899 11.6284 2.72754 11.6899 2.7047C11.7513 2.68185 11.8071 2.64807 11.854 2.60534C11.9009 2.5626 11.9379 2.51177 11.963 2.45581C11.9881 2.39986 12.0006 2.33991 12 2.27947C11.9993 2.21904 11.9854 2.15933 11.9591 2.10385C11.9328 2.04838 11.8946 1.99824 11.8467 1.95638L9.89436 0.177488C9.8471 0.121446 9.78614 0.0762253 9.71632 0.0454209C9.64651 0.0146165 9.56977 -0.000921533 9.49221 4.22477e-05ZM9.5 7.27443C9.36777 7.27443 9.24096 7.32229 9.14747 7.40748C9.05397 7.49267 9.00144 7.60822 9.00144 7.72869C9.00144 7.84917 9.05397 7.96471 9.14747 8.04991C9.24096 8.1351 9.36777 8.18295 9.5 8.18295C9.63222 8.18295 9.75903 8.1351 9.85253 8.04991C9.94603 7.96471 9.99855 7.84917 9.99855 7.72869C9.99855 7.60822 9.94603 7.49267 9.85253 7.40748C9.75903 7.32229 9.63222 7.27443 9.5 7.27443ZM9.5 9.09148C9.36777 9.09148 9.24096 9.13934 9.14747 9.22453C9.05397 9.30972 9.00144 9.42526 9.00144 9.54574C9.00144 9.66622 9.05397 9.78176 9.14747 9.86695C9.24096 9.95214 9.36777 10 9.5 10C9.63222 10 9.75903 9.95214 9.85253 9.86695C9.94603 9.78176 9.99855 9.66622 9.99855 9.54574C9.99855 9.42526 9.94603 9.30972 9.85253 9.22453C9.75903 9.13934 9.63222 9.09148 9.5 9.09148Z" fill="#AAAAAA"/>
</svg>
