<svg width="5" height="10" viewBox="0 0 5 10" fill="none" xmlns="http://www.w3.org/2000/svg">
<path d="M2.49221 4.22477e-05C2.41654 0.00116269 2.34215 0.0179621 2.27466 0.0491674C2.20718 0.0803726 2.14838 0.125165 2.10271 0.18015L0.153282 1.95638C0.105435 1.99824 0.0672343 2.04838 0.0409185 2.10385C0.0146027 2.15933 0.000700393 2.21904 2.5789e-05 2.27947C-0.000648816 2.33991 0.0119179 2.39986 0.0369898 2.45581C0.0620617 2.51177 0.099135 2.5626 0.146038 2.60534C0.192942 2.64807 0.248732 2.68185 0.310142 2.7047C0.371553 2.72754 0.437349 2.73899 0.503676 2.73838C0.570004 2.73776 0.635531 2.72509 0.696418 2.70112C0.757306 2.67714 0.812331 2.64233 0.858271 2.59874L2.00144 1.55713V5.91165C2.00051 5.97184 2.01271 6.03161 2.03735 6.08747C2.06199 6.14333 2.09856 6.19417 2.14495 6.23704C2.19134 6.27991 2.24661 6.31395 2.30756 6.33718C2.36852 6.36042 2.43393 6.37238 2.5 6.37238C2.56607 6.37238 2.63148 6.36042 2.69243 6.33718C2.75339 6.31395 2.80866 6.27991 2.85505 6.23704C2.90144 6.19417 2.93801 6.14333 2.96265 6.08747C2.98728 6.03161 2.99949 5.97184 2.99855 5.91165V1.55713L4.14173 2.59874C4.18767 2.64233 4.24269 2.67714 4.30358 2.70112C4.36447 2.7251 4.42999 2.73776 4.49632 2.73838C4.56265 2.73899 4.62845 2.72754 4.68986 2.7047C4.75127 2.68185 4.80706 2.64807 4.85396 2.60534C4.90087 2.5626 4.93794 2.51177 4.96301 2.45581C4.98808 2.39986 5.00065 2.33991 4.99997 2.27947C4.9993 2.21904 4.9854 2.15933 4.95908 2.10385C4.93276 2.04838 4.89456 1.99824 4.84672 1.95638L2.89436 0.177488C2.8471 0.121446 2.78614 0.0762253 2.71632 0.0454209C2.64651 0.0146165 2.56977 -0.000921533 2.49221 4.22477e-05ZM2.5 7.27443C2.36777 7.27443 2.24096 7.32229 2.14747 7.40748C2.05397 7.49267 2.00144 7.60822 2.00144 7.72869C2.00144 7.84917 2.05397 7.96471 2.14747 8.04991C2.24096 8.1351 2.36777 8.18295 2.5 8.18295C2.63222 8.18295 2.75903 8.1351 2.85253 8.04991C2.94603 7.96471 2.99855 7.84917 2.99855 7.72869C2.99855 7.60822 2.94603 7.49267 2.85253 7.40748C2.75903 7.32229 2.63222 7.27443 2.5 7.27443ZM2.5 9.09148C2.36777 9.09148 2.24096 9.13934 2.14747 9.22453C2.05397 9.30972 2.00144 9.42526 2.00144 9.54574C2.00144 9.66622 2.05397 9.78176 2.14747 9.86695C2.24096 9.95214 2.36777 10 2.5 10C2.63222 10 2.75903 9.95214 2.85253 9.86695C2.94603 9.78176 2.99855 9.66622 2.99855 9.54574C2.99855 9.42526 2.94603 9.30972 2.85253 9.22453C2.75903 9.13934 2.63222 9.09148 2.5 9.09148Z" fill="#AAAAAA"/>
</svg>
