<svg width="5" height="10" viewBox="0 0 5 10" fill="none" xmlns="http://www.w3.org/2000/svg">
<path d="M2.14608 0.133054C2.23962 0.0478612 2.36649 0 2.49878 0C2.63107 0 2.75794 0.0478612 2.85148 0.133054C2.94503 0.218248 2.99758 0.333795 2.99758 0.454276C2.99758 0.574758 2.94503 0.690304 2.85148 0.775498C2.75794 0.860691 2.63107 0.908552 2.49878 0.908552C2.36649 0.908552 2.23962 0.860691 2.14608 0.775498C2.05253 0.690304 1.99998 0.574758 1.99998 0.454276C1.99998 0.333795 2.05253 0.218248 2.14608 0.133054Z" fill="#AAAAAA"/>
<path d="M2.14608 1.95016C2.23962 1.86497 2.36649 1.8171 2.49878 1.8171C2.63107 1.8171 2.75794 1.86497 2.85148 1.95016C2.94503 2.03535 2.99758 2.1509 2.99758 2.27138C2.99758 2.39186 2.94503 2.50741 2.85148 2.5926C2.75794 2.6778 2.63107 2.72566 2.49878 2.72566C2.36649 2.72566 2.23962 2.6778 2.14608 2.5926C2.05253 2.50741 1.99998 2.39186 1.99998 2.27138C1.99998 2.1509 2.05253 2.03535 2.14608 1.95016Z" fill="#AAAAAA"/>
<path d="M2.14091 3.76575C2.23297 3.67942 2.35887 3.62988 2.49099 3.628C2.55772 3.62705 2.62398 3.6383 2.68585 3.6611C2.74772 3.68389 2.80394 3.71776 2.85117 3.7607C2.89841 3.80364 2.93571 3.85477 2.96086 3.91108C2.98601 3.96738 2.99849 4.02771 2.99758 4.08848V8.44315L4.14131 7.40151C4.18727 7.35791 4.24232 7.3231 4.30324 7.29912C4.36416 7.27514 4.42971 7.26247 4.49607 7.26186C4.56244 7.26124 4.62826 7.27269 4.6897 7.29554C4.75115 7.31838 4.80696 7.35216 4.85389 7.3949C4.90082 7.43764 4.93791 7.48848 4.96299 7.54443C4.98808 7.60039 5.00065 7.66034 4.99997 7.72078C4.9993 7.78122 4.98539 7.84092 4.95906 7.8964C4.93273 7.95188 4.89451 8.00202 4.84664 8.04388L2.89626 9.82017L2.89431 9.82283C2.84759 9.8781 2.78752 9.92283 2.71876 9.95356C2.65 9.98428 2.5744 10.0002 2.49781 10C2.42123 9.99983 2.34571 9.9836 2.27712 9.95257C2.20852 9.92154 2.1487 9.87654 2.10227 9.82106L0.150923 8.04388C0.0798139 7.98085 0.0309596 7.89994 0.0106066 7.81149C-0.00974636 7.72304 -0.000673391 7.63107 0.0366651 7.54734C0.0740036 7.46362 0.137911 7.39193 0.220217 7.34146C0.302524 7.29098 0.39949 7.26401 0.498717 7.26398C0.565379 7.26399 0.631363 7.27616 0.692772 7.29978C0.754182 7.3234 0.80977 7.35799 0.856253 7.40151L1.99998 8.44315V4.08848C1.99817 3.96816 2.04886 3.85209 2.14091 3.76575Z" fill="#AAAAAA"/>
</svg>
