<svg width="8" height="16" viewBox="0 0 8 16" fill="none" xmlns="http://www.w3.org/2000/svg">
<path d="M3.72722 6.75963e-05C3.61668 0.0018603 3.508 0.0287394 3.40941 0.0786678C3.31083 0.128596 3.22493 0.200264 3.15821 0.28824L0.310351 3.13021C0.240452 3.19718 0.184646 3.2774 0.146202 3.36617C0.107758 3.45493 0.087449 3.55046 0.0864635 3.64716C0.0854779 3.74385 0.103836 3.83977 0.140463 3.9293C0.17709 4.01883 0.231249 4.10016 0.299769 4.16854C0.368288 4.23692 0.449791 4.29096 0.539503 4.32751C0.629216 4.36406 0.725335 4.38239 0.822231 4.3814C0.919128 4.38042 1.01485 4.36015 1.1038 4.32179C1.19275 4.28342 1.27314 4.22773 1.34025 4.15798L3.01027 2.49141V9.45864C3.00891 9.55495 3.02674 9.65057 3.06273 9.73995C3.09872 9.82932 3.15215 9.91067 3.21991 9.97926C3.28768 10.0478 3.36843 10.1023 3.45747 10.1395C3.54652 10.1767 3.64208 10.1958 3.7386 10.1958C3.83512 10.1958 3.93068 10.1767 4.01972 10.1395C4.10876 10.1023 4.18952 10.0478 4.25728 9.97926C4.32505 9.91067 4.37848 9.82932 4.41447 9.73995C4.45046 9.65057 4.46829 9.55495 4.46692 9.45864V2.49141L6.13695 4.15798C6.20406 4.22773 6.28444 4.28342 6.37339 4.32179C6.46234 4.36015 6.55807 4.38042 6.65497 4.3814C6.75186 4.38239 6.84798 4.36407 6.9377 4.32752C7.02741 4.29097 7.10891 4.23692 7.17743 4.16854C7.24595 4.10016 7.30011 4.01883 7.33674 3.9293C7.37336 3.83977 7.39172 3.74385 7.39074 3.64716C7.38975 3.55046 7.36944 3.45493 7.331 3.36617C7.29255 3.2774 7.23675 3.19718 7.16685 3.13021L4.31471 0.283981C4.24567 0.194314 4.15661 0.12196 4.05462 0.0726734C3.95263 0.0233864 3.84053 -0.00147445 3.72722 6.75963e-05ZM3.7386 11.6391C3.54543 11.6391 3.36018 11.7157 3.22359 11.852C3.08701 11.9883 3.01027 12.1731 3.01027 12.3659C3.01027 12.5587 3.08701 12.7435 3.22359 12.8798C3.36018 13.0162 3.54543 13.0927 3.7386 13.0927C3.93176 13.0927 4.11701 13.0162 4.2536 12.8798C4.39019 12.7435 4.46692 12.5587 4.46692 12.3659C4.46692 12.1731 4.39019 11.9883 4.2536 11.852C4.11701 11.7157 3.93176 11.6391 3.7386 11.6391ZM3.7386 14.5464C3.54543 14.5464 3.36018 14.6229 3.22359 14.7592C3.08701 14.8955 3.01027 15.0804 3.01027 15.2732C3.01027 15.4659 3.08701 15.6508 3.22359 15.7871C3.36018 15.9234 3.54543 16 3.7386 16C3.93176 16 4.11701 15.9234 4.2536 15.7871C4.39019 15.6508 4.46692 15.4659 4.46692 15.2732C4.46692 15.0804 4.39019 14.8955 4.2536 14.7592C4.11701 14.6229 3.93176 14.5464 3.7386 14.5464Z" fill="#AAAAAA"/>
</svg>
