<svg width="512" height="384" viewBox="0 0 512 384" fill="none" xmlns="http://www.w3.org/2000/svg">
<path d="M427 171V160C427 116.667 411.167 79.1667 379.5 47.5C347.833 15.8333 310.333 0 267 0C229 0 195.333 11.8333 166 35.5C136.667 59.1667 118.333 89.3333 111 126C79 130 52.5 144.167 31.5 168.5C10.5 192.833 0 221.333 0 254C0 289.333 12.6667 319.833 38 345.5C63.3333 371.167 93.3333 384 128 384H427C451.667 378.667 472 366 488 346C504 326 512 303 512 277C512 251.667 504 228.833 488 208.5C472 188.167 451.667 175.667 427 171ZM427 341H128C104.667 341 84.6667 332.333 68 315C51.3333 297.667 43 277.333 43 254C43 233.333 51.5 215.167 68.5 199.5C85.5 183.833 105.333 174.333 128 171C130.667 171 134.333 167.333 139 160L149 128C154.333 102 168.167 81.3333 190.5 66C212.833 50.6667 238.333 43 267 43C299 43 326.5 54.5 349.5 77.5C372.5 100.5 384 128 384 160V192C384 198 386.167 203 390.5 207C394.833 211 399.667 213 405 213H418C432.667 216.333 444.833 224 454.5 236C464.167 248 469 261.667 469 277C469 292.333 465.333 306.167 458 318.5C450.667 330.833 440.333 338.333 427 341ZM269 111L267 109H245C243.667 109 243 109.667 243 111L179 154C173.667 157.333 170.5 161.667 169.5 167C168.5 172.333 169.667 177.667 173 183C179.667 195 189.667 197.333 203 190L233 169V277C233 291.667 240 299 254 299C268 299 275 291.667 275 277V169L305 190C318.333 197.333 328.333 195 335 183C342.333 170.333 340.333 160.667 329 154L269 111Z" fill="white"/>
</svg>
