<svg width="22" height="22" viewBox="0 0 22 22" fill="none" xmlns="http://www.w3.org/2000/svg">
<path d="M11 0C8.82441 0 6.69767 0.645139 4.88873 1.85383C3.07979 3.06253 1.66989 4.78049 0.83733 6.79048C0.00476611 8.80047 -0.21307 11.0122 0.211367 13.146C0.635804 15.2798 1.68345 17.2398 3.22183 18.7782C4.76021 20.3165 6.72022 21.3642 8.85401 21.7886C10.9878 22.2131 13.1995 21.9952 15.2095 21.1627C17.2195 20.3301 18.9375 18.9202 20.1462 17.1113C21.3549 15.3023 22 13.1756 22 11C22 8.08261 20.8411 5.28472 18.7782 3.22182C16.7153 1.15892 13.9174 0 11 0ZM6.28572 19.1557V17.5843C6.25121 16.9208 6.47909 16.2703 6.92012 15.7734C7.36116 15.2765 7.97995 14.9731 8.64286 14.9286H13.3571C14.0215 14.973 14.6415 15.2776 15.0828 15.7762C15.524 16.2749 15.7509 16.9273 15.7143 17.5921V19.1636C14.2831 19.9973 12.6563 20.4366 11 20.4366C9.34365 20.4366 7.71693 19.9973 6.28572 19.1636V19.1557ZM17.2857 18.0086V17.5293C17.3071 16.4581 16.9077 15.4212 16.1732 14.6411C15.4387 13.8611 14.4277 13.4001 13.3571 13.3571H8.64286C7.57161 13.3981 6.55938 13.8585 5.82446 14.639C5.08955 15.4194 4.69083 16.4575 4.71429 17.5293V17.9928C3.29102 16.7198 2.28782 15.0447 1.83744 13.189C1.38706 11.3334 1.51073 9.38471 2.19209 7.60089C2.87345 5.81707 4.08038 4.28217 5.65317 3.1993C7.22596 2.11644 9.09048 1.53664 11 1.53664C12.9095 1.53664 14.774 2.11644 16.3468 3.1993C17.9196 4.28217 19.1265 5.81707 19.8079 7.60089C20.4893 9.38471 20.6129 11.3334 20.1626 13.189C19.7122 15.0447 18.709 16.7198 17.2857 17.9928V18.0086Z" fill="#494949"/>
<path d="M11.0001 3.92859C10.2231 3.92859 9.46356 4.159 8.81751 4.59067C8.17146 5.02235 7.66792 5.63591 7.37058 6.35376C7.07324 7.07161 6.99544 7.86152 7.14702 8.62358C7.29861 9.38565 7.67277 10.0857 8.22219 10.6351C8.77161 11.1845 9.47161 11.5587 10.2337 11.7102C10.9957 11.8618 11.7857 11.784 12.5035 11.4867C13.2214 11.1893 13.8349 10.6858 14.2666 10.0398C14.6983 9.3937 14.9287 8.63416 14.9287 7.85716C14.9287 6.81524 14.5148 5.81599 13.778 5.07924C13.0413 4.34249 12.042 3.92859 11.0001 3.92859ZM11.0001 10.2143C10.5339 10.2143 10.0782 10.0761 9.69055 9.81705C9.30292 9.55804 9.0008 9.18991 8.82239 8.7592C8.64398 8.32849 8.5973 7.85454 8.68825 7.3973C8.77921 6.94006 9.0037 6.52006 9.33335 6.19041C9.66301 5.86075 10.083 5.63626 10.5402 5.54531C10.9975 5.45436 11.4714 5.50104 11.9021 5.67944C12.3329 5.85785 12.701 6.15997 12.96 6.5476C13.219 6.93523 13.3572 7.39096 13.3572 7.85716C13.3572 8.48231 13.1089 9.08186 12.6669 9.52391C12.2248 9.96596 11.6253 10.2143 11.0001 10.2143Z" fill="#494949"/>
</svg>
