<svg width="48" height="56" viewBox="0 0 48 56" fill="none" xmlns="http://www.w3.org/2000/svg">
<path d="M24 0L0 8V32C0 45.2563 10.7437 56 24 56C37.2563 56 48 45.2563 48 32V8L24 0ZM43.5 32C43.5 42.7688 34.7688 51.5 24 51.5C13.2312 51.5 4.5 42.7688 4.5 32V11.375L24 4.5L43.5 11.375V32Z" fill="#90273A"/>
<path d="M15.6498 25.6938C15.4413 25.4843 15.1934 25.318 14.9205 25.2046C14.6475 25.0912 14.3548 25.0328 14.0592 25.0328C13.7636 25.0328 13.4709 25.0912 13.198 25.2046C12.925 25.318 12.6771 25.4843 12.4686 25.6938C12.2591 25.9023 12.0929 26.1502 11.9794 26.4231C11.866 26.6961 11.8076 26.9888 11.8076 27.2844C11.8076 27.58 11.866 27.8727 11.9794 28.1456C12.0929 28.4186 12.2591 28.6665 12.4686 28.875L20.5561 36.9625L20.6874 37.0938C20.8846 37.2914 21.1189 37.4482 21.3768 37.5552C21.6348 37.6621 21.9112 37.7172 22.1905 37.7172C22.4697 37.7172 22.7462 37.6621 23.0041 37.5552C23.262 37.4482 23.4963 37.2914 23.6936 37.0938L37.6624 23.125C37.86 22.9277 38.0168 22.6934 38.1238 22.4355C38.2307 22.1776 38.2858 21.9011 38.2858 21.6219C38.2858 21.3426 38.2307 21.0662 38.1238 20.8082C38.0168 20.5503 37.86 20.316 37.6624 20.1188L37.4874 19.9438C37.2901 19.7461 37.0558 19.5893 36.7979 19.4824C36.5399 19.3754 36.2635 19.3203 35.9842 19.3203C35.705 19.3203 35.4285 19.3754 35.1706 19.4824C34.9127 19.5893 34.6784 19.7461 34.4811 19.9438L22.1874 32.2313L15.6498 25.6938Z" fill="#90273A"/>
</svg>
